<?xml version="1.0" encoding="UTF-8"?><svg id="Ebene_1" xmlns="http://www.w3.org/2000/svg" viewBox="0 0 250 250"><defs><style>.cls-1{fill:#ffc835;}.cls-1,.cls-2,.cls-3{stroke:#575756;stroke-miterlimit:10;}.cls-2{fill:#575756;}.cls-3{fill:#fff;}</style></defs><path class="cls-1" d="M60.4,143.27c-16.12-20.89-9.44-50.39,10.28-61.67,18.77-10.74,46.02-3.05,57.1,19.41-4.02.74-16.02,3.5-25.7,14.28-12.66,14.1-11.66,31.14-11.42,34.26-.6-.94-6.47-9.79-17.13-10.28-6.64-.3-11.48,2.82-13.13,4Z"/><path class="cls-2" d="M58.59,144.67c-8.07-10.45-11.21-23.88-8.62-36.84,2.44-12.2,9.57-22.48,19.57-28.21,9.49-5.43,21.38-6.57,32.64-3.13,12.01,3.67,22.08,12.24,27.65,23.52l-4.1,2.02c-5.08-10.3-13.92-17.82-24.89-21.17-10.05-3.07-20.64-2.08-29.03,2.73-8.86,5.07-15.19,14.23-17.36,25.14-2.33,11.67.5,23.75,7.76,33.16l-3.62,2.79Z"/><path class="cls-2" d="M51.27,138.7c-5.33,3.43-10.66,6.85-15.99,10.28"/><polygon class="cls-2" points="53.43 142.07 35.28 148.98 49.11 135.34 53.43 142.07 53.43 142.07"/><path class="cls-2" d="M46.7,127.28c-3.43.38-6.85.76-10.28,1.14"/><polygon class="cls-2" points="47.14 131.26 36.42 128.43 46.26 123.31 47.14 131.26 47.14 131.26"/><path class="cls-2" d="M46.7,111.3c-7.23-.38-14.47-.76-21.7-1.14"/><polygon class="cls-2" points="46.49 115.29 25 110.15 46.91 107.3 46.49 115.29 46.49 115.29"/><path class="cls-2" d="M50.13,96.45c-3.43-2.66-6.85-5.33-10.28-7.99"/><polygon class="cls-2" points="47.67 99.6 39.85 88.45 52.58 93.29 47.67 99.6 47.67 99.6"/><path class="cls-2" d="M60.4,81.6c-4.57-6.09-9.14-12.18-13.7-18.27"/><polygon class="cls-2" points="57.21 84 46.7 63.33 63.6 79.2 57.21 84 57.21 84"/><polygon class="cls-2" points="71.37 72.29 71.82 57.62 79.13 70.35 71.37 72.29 71.37 72.29"/><path class="cls-2" d="M90.1,69.04c.38-7.99.76-15.99,1.14-23.98"/><polygon class="cls-2" points="86.1 68.85 91.24 45.06 94.09 69.23 86.1 68.85 86.1 68.85"/><path class="cls-2" d="M103.8,70.18c1.52-4.19,3.05-8.38,4.57-12.56"/><polygon class="cls-2" points="100.04 68.82 108.37 57.62 107.56 71.55 100.04 68.82 100.04 68.82"/><path class="cls-2" d="M117.51,77.03c2.66-3.43,5.33-6.85,7.99-10.28"/><polygon class="cls-2" points="114.35 74.58 125.5 66.76 120.66 79.49 114.35 74.58 114.35 74.58"/><path class="cls-2" d="M126.64,86.17c5.71-4.57,11.42-9.14,17.13-13.7"/><polygon class="cls-2" points="124.15 83.05 143.77 72.47 129.14 89.29 124.15 83.05 124.15 83.05"/><path class="cls-3" d="M74.11,202.66h122.2c3.19-.82,11.59-3.44,18.27-11.42,1.97-2.35,9.26-11.33,7.99-23.98-.18-1.79-2.04-17.78-15.99-23.98-10.01-4.45-19.59-.85-21.7,0-.52-4.89-2.35-15.43-10.28-25.13-15.94-19.49-41.45-17.12-43.42-16.9-3.75.41-21.52,2.43-33.1,18.04-7.95,10.71-8.57,22.23-8.57,26.84-1.73-1.86-5.55-5.4-11.42-6.85-10.81-2.67-19.58,3.98-21.7,5.71-9.45,7.74-10.08,19.27-10.28,22.84-.17,3.16-.58,13.46,6.85,22.84,7.82,9.87,18.72,11.66,21.13,11.99Z"/><path class="cls-2" d="M196.6,204.94l-122.8-.02c-4.2-.59-14.82-3.01-22.6-12.84-3.7-4.68-7.99-12.7-7.34-24.39.59-10.68,4.33-18.92,11.11-24.48,3.39-2.77,12.48-8.93,23.69-6.16,3.59.89,6.52,2.49,8.83,4.19.62-6.33,2.7-15.13,8.78-23.32,7.89-10.63,20.21-17.36,34.69-18.95,2.9-.32,28.86-2.53,45.43,17.73,6.59,8.06,9.32,16.81,10.4,23.5,4.67-1.4,12.57-2.65,20.74.99,14.7,6.54,17.02,22.67,17.33,25.84.89,8.95-2.13,18.06-8.52,25.68-6.65,7.93-15.04,11.03-19.45,12.16l-.28.07ZM74.27,200.38h121.74c3.95-1.06,11.12-3.81,16.82-10.6,5.59-6.66,8.24-14.58,7.47-22.29-.17-1.67-1.99-16.49-14.64-22.12-8.51-3.79-16.76-1.24-19.92.03l-2.8,1.13-.32-3.01c-.67-6.28-2.91-15.53-9.77-23.92-15.3-18.71-40.34-16.19-41.4-16.08-13.2,1.45-24.39,7.53-31.52,17.13-7.09,9.55-8.13,20.06-8.12,25.47v5.81s-3.95-4.25-3.95-4.25c-2.02-2.16-5.45-5-10.3-6.19-9.47-2.34-17.48,3.43-19.7,5.26-8.67,7.1-9.25,17.71-9.45,21.2-.56,10.25,3.15,17.24,6.36,21.3,6.66,8.41,15.74,10.58,19.5,11.13Z"/></svg>