<?xml version="1.0" encoding="UTF-8"?><svg id="Ebene_1" xmlns="http://www.w3.org/2000/svg" viewBox="0 0 250 250"><defs><style>.cls-1{fill:#ffc835;}.cls-2{fill:#575756;}.cls-3{fill:#fff;}</style></defs><path class="cls-3" d="M60.79,121.29c.95-2.48,3.13-7.18,7.89-11.15,2.25-1.88,8.25-6.89,16.59-5.98,7.73.84,12.43,6.2,13.6,7.62-.18-3.9-.22-15.62,7.74-26.41,10.09-13.68,25.84-16.12,28.73-16.56.93-.14,1.67-.22,2.15-.27,1.83-.2,25.63-2.41,40.5,15.76,7.4,9.04,9.1,18.87,9.59,23.44,1.97-.79,10.91-4.15,20.24,0,13.01,5.79,14.75,20.7,14.91,22.37,1.18,11.8-5.62,20.18-7.46,22.37-6.24,7.44-14.07,9.88-17.04,10.65h-46.36c-1.51-2.56-11.17-18.34-31.13-22.39-23.1-4.69-39.92,10.41-41.57,11.95-2.03-.27-9.3-1.5-14.64-7.8-8.41-9.94-3.96-22.98-3.74-23.59Z"/><path class="cls-1" d="M86.99,104.42c-7.29-14.92-4.91-32.45,5.78-43.83,13.45-14.31,32.81-11.18,33.67-11.02,17.69,3.17,25.73,17.87,26.67,19.65-1.73-.46-22.78-5.71-39.61,8.96-14.81,12.91-14.68,31.06-14.62,33.58-1.59-1.44-3.18-2.88-4.77-4.32-2.37-1.01-4.74-2.02-7.12-3.03Z"/><path class="cls-2" d="M93.16,54.65c-7.25-8.75-14.51-17.5-21.76-26.25"/><polygon class="cls-2" points="90.7 56.69 71.4 28.4 95.62 52.61 90.7 56.69 90.7 56.69"/><path class="cls-2" d="M80.03,86.09c-12.35-.46-24.7-.92-37.05-1.38"/><polygon class="cls-2" points="79.91 89.28 42.98 84.7 80.15 82.89 79.91 89.28 79.91 89.28"/><path class="cls-2" d="M83.29,69.31c-5.23-2.6-10.46-5.2-15.69-7.8"/><polygon class="cls-2" points="81.87 72.17 67.61 61.52 84.72 66.45 81.87 72.17 81.87 72.17"/><path class="cls-2" d="M108.39,47.31c-2.04-6.57-4.08-13.15-6.12-19.72"/><polygon class="cls-2" points="105.34 48.25 102.27 27.59 111.45 46.36 105.34 48.25 105.34 48.25"/><path class="cls-2" d="M135.73,48.67l7.89-15.91"/><polygon class="cls-2" points="132.87 47.25 143.62 32.75 138.59 50.09 132.87 47.25 132.87 47.25"/><path class="cls-2" d="M153.65,64.51c6.07-2.39,12.15-4.77,18.22-7.16"/><polygon class="cls-2" points="152.48 61.53 171.87 57.35 154.82 67.48 152.48 61.53 152.48 61.53"/><path class="cls-2" d="M123.63,46.08c.5-10.93,1-21.85,1.5-32.78"/><polygon class="cls-2" points="120.43 45.94 125.12 13.31 126.82 46.23 120.43 45.94 120.43 45.94"/><path class="cls-2" d="M145.66,55.74c8.61-10.11,17.23-20.22,25.84-30.33"/><polygon class="cls-2" points="143.22 53.66 171.5 25.41 148.09 57.81 143.22 53.66 143.22 53.66"/><path class="cls-3" d="M53.29,234.56h113.99c2.98-.77,10.81-3.21,17.04-10.65,1.84-2.19,8.63-10.57,7.46-22.37-.17-1.67-1.91-16.59-14.91-22.37-9.33-4.15-18.28-.79-20.24,0-.49-4.56-2.19-14.39-9.59-23.44-14.87-18.18-38.67-15.97-40.5-15.76-3.49.38-20.07,2.27-30.88,16.83-7.41,9.99-8,20.73-7.99,25.03-1.62-1.73-5.17-5.04-10.65-6.39-10.08-2.49-18.27,3.71-20.24,5.33-8.81,7.22-9.4,17.98-9.59,21.31-.16,2.95-.54,12.56,6.39,21.31,7.29,9.2,17.46,10.87,19.71,11.19Z"/><path class="cls-2" d="M167.55,236.69l-114.55-.02c-3.92-.55-13.83-2.82-21.08-11.97-3.46-4.36-7.45-11.85-6.85-22.75.55-9.97,4.04-17.65,10.36-22.84,3.16-2.59,11.64-8.33,22.1-5.75,3.35.83,6.09,2.32,8.23,3.91.58-5.91,2.52-14.11,8.19-21.75,7.36-9.92,18.85-16.2,32.36-17.68,2.71-.29,26.93-2.36,42.38,16.53,6.15,7.52,8.69,15.68,9.7,21.92,4.36-1.3,11.72-2.47,19.34.92,13.71,6.1,15.87,21.15,16.17,24.11.83,8.34-1.99,16.85-7.94,23.95-6.2,7.4-14.03,10.29-18.15,11.35l-.26.07ZM53.44,232.43h113.56c3.68-.99,10.37-3.55,15.69-9.89,5.21-6.22,7.69-13.6,6.97-20.79-.16-1.56-1.86-15.39-13.66-20.64-7.94-3.53-15.64-1.16-18.58.03l-2.62,1.06-.3-2.8c-.63-5.86-2.72-14.49-9.12-22.31-14.27-17.45-37.63-15.11-38.62-15-12.31,1.35-22.75,7.03-29.4,15.98-6.61,8.91-7.58,18.71-7.57,23.76v5.42s-3.69-3.97-3.69-3.97c-1.88-2.02-5.08-4.66-9.61-5.78-8.84-2.18-16.3,3.2-18.38,4.91-8.08,6.63-8.63,16.52-8.81,19.77-.53,9.56,2.94,16.08,5.93,19.87,6.21,7.84,14.68,9.87,18.19,10.38Z"/><path class="cls-2" d="M198.51,165.25h-46.63c-1.18,0-2.13-.95-2.13-2.13s.95-2.13,2.13-2.13h46.08c3.68-.99,10.37-3.55,15.69-9.89,5.21-6.22,7.69-13.6,6.97-20.79-.16-1.56-1.86-15.39-13.66-20.64-7.94-3.53-15.64-1.16-18.58.03l-2.61,1.05-.3-2.8c-.63-5.86-2.72-14.49-9.12-22.31-14.28-17.46-37.63-15.1-38.62-15-.47.05-1.17.13-2.07.26-5.32.8-18.63,3.92-27.33,15.71-6.95,9.43-7.58,19.74-7.33,25.05l.3,6.4-4.07-4.94c-1.5-1.83-5.7-6.15-12.18-6.85-7.46-.8-12.93,3.78-15,5.5-3.21,2.68-5.72,6.23-7.26,10.28-.42,1.1-1.66,1.65-2.75,1.23-1.1-.42-1.65-1.65-1.23-2.75,1.8-4.72,4.75-8.88,8.51-12.03,2.44-2.04,8.94-7.47,18.19-6.47,4.85.52,8.65,2.65,11.3,4.75.41-6.2,2.22-14.72,8.11-22.7,9.65-13.08,24.28-16.52,30.13-17.4.97-.15,1.73-.23,2.23-.29,2.71-.3,26.91-2.38,42.38,16.53,6.15,7.52,8.69,15.68,9.7,21.92,4.36-1.3,11.72-2.47,19.34.92,13.71,6.1,15.87,21.15,16.17,24.11.83,8.34-1.99,16.85-7.95,23.95-6.21,7.4-14.03,10.29-18.15,11.35l-.26.07Z"/><path class="cls-2" d="M85.27,104.91c-7.6-15.41-5.21-33.8,5.94-45.77,14.32-15.36,34.75-11.83,35.61-11.67,19.25,3.54,27.58,20.07,28.47,21.95l-3.85,1.82c-.79-1.67-8.23-16.43-25.39-19.58-.19-.03-18.98-3.29-31.73,10.38-9.95,10.68-12.06,27.15-5.24,40.98l-3.82,1.89Z"/><path class="cls-2" d="M81.54,132.48c-.63,0-1.27-.02-1.93-.08-5.85-.47-10.19-2.89-12.8-4.85-.71-.53-.85-1.53-.32-2.24.53-.71,1.53-.85,2.24-.32,2.27,1.7,6.04,3.81,11.14,4.22,5.89.47,10.46-1.65,12.66-2.96.76-.45,1.74-.2,2.19.56.45.76.2,1.74-.56,2.19-2.28,1.35-6.78,3.47-12.62,3.47Z"/><path class="cls-2" d="M141.76,135.9c-3.8,0-7.61-.2-11.41-.6-10.17-1.07-20.14-3.58-29.63-7.45-.82-.33-1.21-1.27-.88-2.08.33-.82,1.26-1.21,2.08-.88,9.21,3.76,18.89,6.19,28.76,7.23,11.8,1.25,23.67.5,35.28-2.23.86-.2,1.72.33,1.92,1.19s-.33,1.72-1.19,1.92c-8.22,1.93-16.57,2.9-24.94,2.9Z"/><path class="cls-2" d="M173.13,133.09c-.82,0-1.52-.63-1.59-1.46-.08-.88.57-1.65,1.45-1.73,5.44-.48,10.71-1.85,15.67-4.08,4.51-2.03,8.68-4.73,12.38-8.03.66-.59,1.67-.53,2.26.13.59.66.53,1.67-.13,2.26-3.94,3.52-8.38,6.4-13.19,8.56-5.29,2.38-10.91,3.84-16.7,4.35-.05,0-.09,0-.14,0Z"/><path class="cls-2" d="M175.85,118.67c-.48,0-.95-.21-1.27-.62-.54-.7-.41-1.7.29-2.24l7.75-5.98c.7-.54,1.7-.41,2.24.29s.41,1.7-.29,2.24l-7.75,5.98c-.29.22-.63.33-.97.33Z"/></svg>