<?xml version="1.0" encoding="UTF-8"?><svg id="Ebene_1" xmlns="http://www.w3.org/2000/svg" viewBox="0 0 250 250"><defs><style>.cls-1{fill:#ffc835;}.cls-2{fill:#575756;}.cls-3{fill:#fff;}</style></defs><path class="cls-1" d="M66.73,101.39c-15.5-20.08-9.07-48.46,9.88-59.3,18.05-10.32,44.25-2.93,54.91,18.67-3.87.71-15.4,3.36-24.71,13.73-12.17,13.56-11.21,29.95-10.98,32.94-.58-.9-6.22-9.42-16.47-9.88-6.39-.29-11.04,2.71-12.63,3.84Z"/><path class="cls-2" d="M64.99,102.73c-7.76-10.05-10.78-22.96-8.29-35.43,2.34-11.73,9.2-21.62,18.82-27.12,9.12-5.22,20.56-6.31,31.38-3.01,11.54,3.53,21.23,11.77,26.59,22.61l-3.94,1.94c-4.89-9.91-13.39-17.14-23.93-20.36-9.67-2.95-19.84-2-27.92,2.62-8.52,4.87-14.6,13.68-16.7,24.17-2.24,11.22.48,22.84,7.46,31.88l-3.48,2.68Z"/><path class="cls-2" d="M57.94,97c-5.12,3.29-10.25,6.59-15.37,9.88"/><polygon class="cls-2" points="60.02 100.23 42.57 106.88 55.87 93.76 60.02 100.23 60.02 100.23"/><path class="cls-2" d="M53.55,80.52c-9.52.37-19.03.73-28.55,1.1"/><polygon class="cls-2" points="53.7 84.37 25 81.62 53.4 76.68 53.7 84.37 53.7 84.37"/><path class="cls-2" d="M59.04,55.27c-7.69-5.49-15.37-10.98-23.06-16.47"/><polygon class="cls-2" points="56.81 58.39 35.98 38.79 61.28 52.14 56.81 58.39 56.81 58.39"/><polygon class="cls-2" points="79.56 36.72 75.52 12.44 86.85 34.29 79.56 36.72 79.56 36.72"/><path class="cls-2" d="M106.26,35.5c2.2-5.86,4.39-11.71,6.59-17.57"/><polygon class="cls-2" points="102.66 34.15 112.85 17.93 109.86 36.85 102.66 34.15 102.66 34.15"/><path class="cls-2" d="M128.23,47.58c5.12-6.59,10.25-13.18,15.37-19.77"/><polygon class="cls-2" points="125.19 45.22 143.6 27.81 131.26 49.94 125.19 45.22 125.19 45.22"/><path class="cls-3" d="M79.91,158.49h117.5c3.07-.79,11.14-3.31,17.57-10.98,1.89-2.26,8.9-10.89,7.69-23.06-.17-1.72-1.97-17.1-15.37-23.06-9.62-4.28-18.84-.82-20.86,0-.5-4.7-2.26-14.84-9.88-24.16-15.33-18.74-39.86-16.46-41.75-16.25-3.6.4-20.69,2.34-31.83,17.35-7.64,10.3-8.25,21.37-8.24,25.81-1.67-1.79-5.33-5.19-10.98-6.59-10.39-2.56-18.83,3.82-20.86,5.49-9.08,7.44-9.69,18.53-9.88,21.96-.17,3.04-.55,12.95,6.59,21.96,7.52,9.49,18,11.21,20.32,11.53Z"/><path class="cls-2" d="M197.69,160.69l-118.09-.02c-4.04-.57-14.25-2.9-21.73-12.34-3.56-4.5-7.68-12.22-7.06-23.45.57-10.27,4.16-18.19,10.68-23.54,3.26-2.67,12-8.59,22.78-5.92,3.45.85,6.27,2.39,8.49,4.03.6-6.09,2.59-14.55,8.44-22.43,7.59-10.22,19.43-16.69,33.35-18.22,2.8-.31,27.75-2.44,43.69,17.04,6.34,7.75,8.96,16.17,10,22.59,4.5-1.34,12.08-2.54,19.94.95,14.13,6.29,16.36,21.8,16.67,24.85.86,8.6-2.05,17.37-8.19,24.69-6.4,7.63-14.46,10.6-18.71,11.7l-.27.07ZM80.06,156.3h117.06c3.8-1.02,10.69-3.66,16.17-10.2,5.37-6.41,7.92-14.02,7.18-21.43-.16-1.61-1.92-15.86-14.08-21.27-8.19-3.64-16.12-1.19-19.15.03l-2.7,1.09-.31-2.89c-.65-6.04-2.8-14.94-9.4-23-14.72-17.99-38.79-15.57-39.81-15.46-12.69,1.39-23.46,7.25-30.31,16.47-6.81,9.18-7.81,19.29-7.8,24.49v5.59s-3.8-4.08-3.8-4.08c-1.94-2.08-5.24-4.8-9.9-5.96-9.11-2.25-16.81,3.3-18.95,5.06-8.34,6.83-8.9,17.03-9.08,20.38-.54,9.86,3.03,16.58,6.12,20.48,6.41,8.09,15.14,10.17,18.75,10.7Z"/><path class="cls-3" d="M70.02,235.36h117.5c3.07-.79,11.14-3.31,17.57-10.98,1.89-2.26,8.9-10.89,7.69-23.06-.17-1.72-1.97-17.1-15.37-23.06-9.62-4.28-18.84-.82-20.86,0-.5-4.7-2.26-14.84-9.88-24.16-15.33-18.74-39.86-16.46-41.75-16.25-3.6.4-20.69,2.34-31.83,17.35-7.64,10.3-8.25,21.37-8.24,25.81-1.67-1.79-5.33-5.19-10.98-6.59-10.39-2.56-18.83,3.82-20.86,5.49-9.08,7.44-9.69,18.53-9.88,21.96-.17,3.04-.55,12.95,6.59,21.96,7.52,9.49,18,11.21,20.32,11.53Z"/><path class="cls-2" d="M187.81,237.56l-118.09-.02c-4.04-.57-14.25-2.9-21.73-12.34-3.56-4.5-7.68-12.22-7.06-23.45.57-10.27,4.16-18.19,10.68-23.54,3.26-2.67,12-8.59,22.78-5.92,3.45.85,6.27,2.39,8.49,4.03.6-6.09,2.59-14.55,8.44-22.43,7.59-10.22,19.43-16.69,33.35-18.22,2.79-.31,27.75-2.44,43.69,17.04,6.34,7.75,8.96,16.17,10,22.59,4.5-1.34,12.08-2.54,19.94.95,14.13,6.29,16.36,21.8,16.67,24.85.86,8.6-2.05,17.37-8.19,24.69-6.4,7.63-14.46,10.6-18.71,11.7l-.27.07ZM70.18,233.17h117.06c3.8-1.02,10.69-3.66,16.17-10.2,5.37-6.41,7.92-14.02,7.18-21.43-.16-1.61-1.92-15.86-14.08-21.27-8.19-3.64-16.12-1.19-19.15.03l-2.7,1.09-.31-2.89c-.65-6.04-2.8-14.94-9.4-23-14.72-17.99-38.79-15.57-39.81-15.46-12.69,1.39-23.46,7.25-30.31,16.47-6.81,9.18-7.81,19.29-7.8,24.49v5.59s-3.8-4.08-3.8-4.08c-1.94-2.08-5.24-4.8-9.9-5.96-9.11-2.25-16.8,3.3-18.95,5.06-8.34,6.83-8.9,17.03-9.08,20.38-.54,9.86,3.03,16.58,6.12,20.48,6.41,8.09,15.14,10.17,18.75,10.7Z"/></svg>