<?xml version="1.0" encoding="UTF-8"?><svg id="Ebene_1" xmlns="http://www.w3.org/2000/svg" viewBox="0 0 250 250"><defs><style>.cls-1{fill:#78bee3;}.cls-2{fill:#575756;}.cls-3{fill:#fff;}</style></defs><path class="cls-3" d="M58.47,146.5h134.86c3.52-.91,12.79-3.8,20.17-12.6,2.17-2.59,10.22-12.5,8.82-26.47-.2-1.98-2.26-19.62-17.65-26.47-11.04-4.91-21.62-.94-23.95,0-.58-5.4-2.59-17.03-11.34-27.73-17.59-21.51-45.75-18.89-47.92-18.65-4.13.45-23.75,2.68-36.53,19.91-8.77,11.82-9.46,24.53-9.45,29.62-1.91-2.05-6.12-5.96-12.6-7.56-11.93-2.94-21.61,4.39-23.95,6.3-10.42,8.54-11.13,21.27-11.34,25.21-.19,3.48-.64,14.86,7.56,25.21,8.63,10.89,20.66,12.86,23.32,13.23Z"/><path class="cls-2" d="M193.65,149.02l-135.53-.02c-4.64-.65-16.36-3.32-24.95-14.17-4.09-5.16-8.81-14.02-8.1-26.91.65-11.79,4.78-20.88,12.26-27.02,3.74-3.06,13.77-9.85,26.15-6.8,3.96.98,7.2,2.74,9.74,4.63.69-6.99,2.98-16.7,9.69-25.74,8.7-11.73,22.3-19.16,38.28-20.92,3.21-.35,31.86-2.79,50.14,19.56,7.28,8.9,10.29,18.56,11.48,25.93,5.16-1.54,13.87-2.92,22.89,1.09,16.22,7.22,18.78,25.02,19.13,28.52.98,9.87-2.35,19.93-9.4,28.34-7.34,8.76-16.6,12.17-21.47,13.43l-.31.08ZM58.65,143.98h134.36c4.36-1.17,12.27-4.2,18.56-11.7,6.17-7.35,9.09-16.09,8.25-24.6-.18-1.85-2.2-18.2-16.16-24.42-9.39-4.18-18.5-1.37-21.98.04l-3.09,1.25-.35-3.32c-.74-6.93-3.22-17.14-10.79-26.4-16.89-20.64-44.52-17.87-45.69-17.74-14.57,1.6-26.92,8.32-34.78,18.91-7.82,10.54-8.97,22.14-8.96,28.11v6.41s-4.36-4.69-4.36-4.69c-2.23-2.39-6.01-5.51-11.37-6.84-10.45-2.58-19.29,3.79-21.75,5.8-9.57,7.84-10.21,19.55-10.42,23.4-.62,11.31,3.47,19.03,7.02,23.51,7.35,9.28,17.37,11.67,21.52,12.28Z"/><path class="cls-1" d="M73.42,154.02c.71,2.22.61,4.51-1.06,5.87-.84.55-2.19.76-2.85,1.43-.68.65-.92,1.59-.91,2.69.02,4.41-2.3,7.69-7.19,8.46,0,0-.53-.34-.53-.34-1.08-4.29.21-7.1,3.4-9.28,1.22-.71,3.09-1.21,3.53-2.63.47-1.3-.41-3.31.75-4.44,1.17-1.26,2.26-1.88,4.34-2.1,0,0,.53.34.53.34h0Z"/><path class="cls-1" d="M62.04,177.49c.71,2.22.61,4.51-1.06,5.87-.84.55-2.19.76-2.85,1.43-.68.65-.92,1.59-.91,2.69.02,4.41-2.3,7.69-7.19,8.46,0,0-.53-.34-.53-.34-1.08-4.29.21-7.1,3.4-9.28,1.22-.71,3.09-1.21,3.53-2.63.47-1.3-.41-3.31.75-4.44,1.17-1.26,2.26-1.88,4.34-2.1,0,0,.53.34.53.34h0Z"/><path class="cls-1" d="M77.33,195.94c.71,2.22.61,4.51-1.06,5.87-.84.55-2.19.76-2.85,1.43-.68.65-.91,1.59-.91,2.69.02,4.41-2.3,7.69-7.19,8.46,0,0-.53-.34-.53-.34-1.08-4.29.21-7.1,3.4-9.28,1.22-.71,3.09-1.21,3.53-2.63.47-1.3-.41-3.31.75-4.44,1.17-1.26,2.26-1.88,4.34-2.1,0,0,.53.34.53.34h0Z"/><path class="cls-1" d="M94.22,163.25c.71,2.22.61,4.51-1.06,5.87-.84.55-2.19.76-2.85,1.43-.68.65-.92,1.59-.91,2.69.02,4.41-2.3,7.69-7.19,8.46,0,0-.53-.34-.53-.34-1.08-4.29.21-7.1,3.4-9.28,1.22-.71,3.09-1.21,3.53-2.63.47-1.3-.41-3.31.75-4.44,1.17-1.26,2.26-1.88,4.34-2.1,0,0,.53.34.53.34h0Z"/><path class="cls-1" d="M111.12,174.03c.71,2.22.61,4.51-1.06,5.87-.84.55-2.19.76-2.85,1.43-.68.65-.91,1.59-.91,2.69.02,4.41-2.3,7.69-7.19,8.46,0,0-.53-.34-.53-.34-1.08-4.29.21-7.1,3.4-9.28,1.22-.71,3.09-1.21,3.53-2.63.47-1.3-.41-3.31.75-4.44,1.17-1.26,2.26-1.88,4.34-2.1,0,0,.53.34.53.34h0Z"/><path class="cls-1" d="M160.17,190.03c.69,2.48.46,4.89-1.28,6.54-.89.68-2.3,1.03-3.01,1.82-.72.78-1,1.83-1.02,3.04-.13,4.82-2.56,8.6-7.72,9.92,0,0-.54-.33-.54-.33-1-4.65.5-7.86,3.81-10.49,1.32-.9,3.25-1.62,3.74-3.2.52-1.47-.31-3.63.91-4.93,1.21-1.44,2.38-2.28,4.57-2.7,0,0,.54.33.54.33h0Z"/><path class="cls-1" d="M174.74,159.62c.6,1.32.67,2.32.57,3.21-.14.86-.34,1.7-1.12,2.2-.77.49-2.07.67-2.65,1.28-.6.6-.76,1.46-.66,2.48.39,4.08-1.66,7.1-6.28,7.72,0,0-.54-.32-.54-.32-1.37-3.93-.43-6.52,2.53-8.53,1.1-.63,2.9-1.07,3.21-2.38.36-1.18-.68-3.02.36-4.09,1.07-1.19,2.05-1.71,4.04-1.88,0,0,.54.32.54.32h0Z"/><path class="cls-1" d="M135.48,177.67c.58,1.35.63,2.37.51,3.29-.16.89-.38,1.76-1.17,2.28-.79.52-2.1.72-2.7,1.35-.62.62-.79,1.51-.71,2.55.32,4.18-1.79,7.3-6.49,8.02,0,0-.54-.33-.54-.33-1.32-4.03-.29-6.7,2.72-8.8,1.13-.66,2.95-1.14,3.28-2.49.38-1.22-.62-3.11.44-4.21,1.09-1.22,2.1-1.78,4.11-1.99,0,0,.54.33.54.33h0Z"/><path class="cls-1" d="M147.98,153.85c.61,1.31.68,2.31.59,3.21-.13.86-.33,1.71-1.1,2.21-.77.5-2.06.69-2.64,1.3-.6.6-.75,1.46-.64,2.48.42,4.08-1.61,7.1-6.22,7.76,0,0-.54-.32-.54-.32-1.4-3.92-.48-6.51,2.47-8.55,1.1-.64,2.89-1.08,3.19-2.4.35-1.18-.7-3.02.33-4.09,1.06-1.19,2.04-1.72,4.03-1.91,0,0,.54.32.54.32h0Z"/><path class="cls-1" d="M124.86,151.5c.78,1.25,1.55,3.36.12,4.23-1.61.5-3.21.2-2.62,2.54.18.73.33,1.47.14,2.16-.11,1.43-.86,2.3-2.27,2.76-.71.26-1.59.41-2.77.38l-.54-.33c-.87-1.68-1.25-3.07-.75-4.61.4-.81,1.28-1.39,2.1-1.82.85-.35,2.54-.44,2.68-1.47.22-.87-.99-2.38-.14-3.2.92-.92,2.11-1.07,3.51-.96,0,0,.54.33.54.33h0Z"/><path class="cls-1" d="M120.41,203.68c.82,1.51,1.35,3.71-.15,4.8-1.79.74-3.39.62-2.92,3.16.45,2.3-.18,4.89-2.56,5.82-.76.37-1.7.63-2.94.71l-.54-.32c-.84-1.88-1.09-3.48-.48-5.18.47-.96,1.41-1.69,2.33-2.29.97-.49,2.71-.77,2.91-1.95.27-1.02-.87-2.68.06-3.63.95-1.07,2.22-1.45,3.75-1.45,0,0,.54.32.54.32h0Z"/></svg>