<?xml version="1.0" encoding="UTF-8"?><svg id="Ebene_1" xmlns="http://www.w3.org/2000/svg" viewBox="0 0 250 250"><defs><style>.cls-1{fill:#ffc835;}.cls-2{fill:#78bee3;}.cls-3{fill:#575756;}.cls-4{fill:#fff;}</style></defs><path class="cls-1" d="M60.4,111.94c-16.12-20.89-9.44-50.39,10.28-61.67,18.77-10.74,46.02-3.05,57.1,19.41-4.02.74-16.02,3.5-25.7,14.28-12.66,14.1-11.66,31.14-11.42,34.26-.6-.94-6.47-9.79-17.13-10.28-6.64-.3-11.48,2.82-13.13,4Z"/><path class="cls-3" d="M58.59,113.34c-8.07-10.45-11.21-23.88-8.62-36.84,2.44-12.2,9.57-22.48,19.57-28.21,9.49-5.43,21.38-6.57,32.64-3.13,12.01,3.67,22.08,12.24,27.65,23.52l-4.1,2.02c-5.08-10.3-13.92-17.82-24.89-21.17-10.05-3.07-20.64-2.08-29.03,2.73-8.86,5.07-15.19,14.23-17.36,25.14-2.33,11.67.5,23.75,7.76,33.16l-3.62,2.79Z"/><path class="cls-3" d="M51.27,107.38c-5.33,3.43-10.66,6.85-15.99,10.28"/><polygon class="cls-3" points="53.43 110.74 35.28 117.65 49.11 104.01 53.43 110.74 53.43 110.74"/><path class="cls-3" d="M46.7,95.96c-3.43.38-6.85.76-10.28,1.14"/><polygon class="cls-3" points="47.14 99.93 36.42 97.1 46.26 91.98 47.14 99.93 47.14 99.93"/><path class="cls-3" d="M46.7,79.97c-7.23-.38-14.47-.76-21.7-1.14"/><polygon class="cls-3" points="46.49 83.96 25 78.82 46.91 75.98 46.49 83.96 46.49 83.96"/><path class="cls-3" d="M50.13,65.12c-3.43-2.66-6.85-5.33-10.28-7.99"/><polygon class="cls-3" points="47.67 68.28 39.85 57.13 52.58 61.97 47.67 68.28 47.67 68.28"/><path class="cls-3" d="M60.4,50.27c-4.57-6.09-9.14-12.18-13.7-18.27"/><polygon class="cls-3" points="57.21 52.67 46.7 32 63.6 47.88 57.21 52.67 57.21 52.67"/><polygon class="cls-3" points="71.37 40.96 71.82 26.29 79.13 39.03 71.37 40.96 71.37 40.96"/><path class="cls-3" d="M90.1,37.71c.38-7.99.76-15.99,1.14-23.98"/><polygon class="cls-3" points="86.1 37.52 91.24 13.73 94.09 37.9 86.1 37.52 86.1 37.52"/><path class="cls-3" d="M103.8,38.85c1.52-4.19,3.05-8.38,4.57-12.56"/><polygon class="cls-3" points="100.04 37.49 108.37 26.29 107.56 40.22 100.04 37.49 100.04 37.49"/><path class="cls-3" d="M117.51,45.71c2.66-3.43,5.33-6.85,7.99-10.28"/><polygon class="cls-3" points="114.35 43.25 125.5 35.43 120.66 48.16 114.35 43.25 114.35 43.25"/><path class="cls-3" d="M126.64,54.84c5.71-4.57,11.42-9.14,17.13-13.7"/><polygon class="cls-3" points="124.15 51.72 143.77 41.14 129.14 57.96 124.15 51.72 124.15 51.72"/><path class="cls-4" d="M74.11,171.33h122.2c3.19-.82,11.59-3.44,18.27-11.42,1.97-2.35,9.26-11.33,7.99-23.98-.18-1.79-2.04-17.78-15.99-23.98-10.01-4.45-19.59-.85-21.7,0-.52-4.89-2.35-15.43-10.28-25.13-15.94-19.49-41.45-17.12-43.42-16.9-3.75.41-21.52,2.43-33.1,18.04-7.95,10.71-8.57,22.23-8.57,26.84-1.73-1.86-5.55-5.4-11.42-6.85-10.81-2.67-19.58,3.98-21.7,5.71-9.45,7.74-10.08,19.27-10.28,22.84-.17,3.16-.58,13.46,6.85,22.84,7.82,9.87,18.72,11.66,21.13,11.99Z"/><path class="cls-3" d="M196.6,173.61l-122.8-.02c-4.2-.59-14.82-3.01-22.6-12.84-3.7-4.68-7.99-12.7-7.34-24.39.59-10.68,4.33-18.92,11.11-24.48,3.39-2.77,12.48-8.93,23.69-6.16,3.59.89,6.52,2.49,8.83,4.19.62-6.33,2.7-15.13,8.78-23.32,7.89-10.63,20.21-17.36,34.69-18.95,2.9-.32,28.86-2.53,45.43,17.73,6.59,8.06,9.32,16.81,10.4,23.5,4.67-1.4,12.57-2.65,20.74.99,14.7,6.54,17.02,22.67,17.33,25.84.89,8.95-2.13,18.06-8.52,25.68-6.65,7.93-15.04,11.03-19.45,12.16l-.28.07ZM74.27,169.05h121.74c3.95-1.06,11.12-3.81,16.82-10.6,5.59-6.66,8.24-14.58,7.47-22.29-.17-1.67-1.99-16.49-14.64-22.12-8.51-3.79-16.76-1.24-19.92.03l-2.8,1.13-.32-3.01c-.67-6.28-2.91-15.53-9.77-23.92-15.3-18.71-40.34-16.19-41.4-16.08-13.2,1.45-24.39,7.53-31.52,17.13-7.09,9.55-8.13,20.06-8.12,25.47v5.81s-3.95-4.25-3.95-4.25c-2.02-2.16-5.45-5-10.3-6.19-9.47-2.34-17.48,3.43-19.7,5.26-8.67,7.1-9.25,17.71-9.45,21.2-.56,10.25,3.15,17.24,6.36,21.3,6.66,8.41,15.74,10.58,19.5,11.13Z"/><path class="cls-2" d="M87.65,178.14c.64,2.01.55,4.08-.96,5.32-.76.5-1.99.69-2.59,1.29-.61.59-.83,1.44-.82,2.44.02,3.99-2.08,6.96-6.51,7.66,0,0-.48-.31-.48-.31-.97-3.88.19-6.43,3.08-8.41,1.11-.64,2.8-1.09,3.2-2.38.42-1.17-.37-3,.68-4.02,1.06-1.14,2.04-1.71,3.93-1.9,0,0,.48.31.48.31h0Z"/><path class="cls-2" d="M77.34,199.41c.64,2.01.55,4.08-.96,5.32-.76.5-1.99.69-2.59,1.29-.61.59-.83,1.44-.82,2.44.02,3.99-2.08,6.96-6.51,7.66,0,0-.48-.31-.48-.31-.97-3.88.19-6.43,3.08-8.41,1.11-.64,2.8-1.09,3.2-2.38.42-1.17-.37-3,.68-4.02,1.06-1.14,2.04-1.71,3.93-1.9,0,0,.48.31.48.31h0Z"/><path class="cls-2" d="M91.2,216.13c.64,2.01.55,4.08-.96,5.32-.76.5-1.99.69-2.59,1.29-.61.59-.83,1.44-.82,2.44.02,3.99-2.08,6.96-6.51,7.66,0,0-.48-.31-.48-.31-.97-3.88.19-6.43,3.08-8.41,1.11-.64,2.8-1.09,3.2-2.38.42-1.17-.37-3,.68-4.02,1.06-1.14,2.04-1.71,3.93-1.9,0,0,.48.31.48.31h0Z"/><path class="cls-2" d="M106.5,186.5c.64,2.01.55,4.08-.96,5.32-.76.5-1.99.69-2.59,1.29-.61.59-.83,1.44-.82,2.44.02,3.99-2.08,6.96-6.51,7.66,0,0-.48-.31-.48-.31-.97-3.88.19-6.43,3.08-8.41,1.11-.64,2.8-1.09,3.2-2.38.42-1.17-.37-3,.68-4.02,1.06-1.14,2.04-1.71,3.93-1.9,0,0,.48.31.48.31h0Z"/><path class="cls-2" d="M121.81,196.27c.64,2.01.55,4.08-.96,5.32-.76.5-1.99.69-2.59,1.29-.61.59-.83,1.44-.82,2.44.02,3.99-2.08,6.96-6.51,7.66,0,0-.48-.31-.48-.31-.97-3.88.19-6.43,3.08-8.41,1.11-.64,2.8-1.09,3.2-2.38.42-1.17-.37-3,.68-4.02,1.06-1.14,2.04-1.71,3.93-1.9,0,0,.48.31.48.31h0Z"/><path class="cls-2" d="M166.26,210.77c.62,2.25.42,4.43-1.16,5.92-.81.61-2.09.94-2.72,1.65-.65.71-.9,1.66-.93,2.75-.11,4.36-2.32,7.79-6.99,8.99,0,0-.49-.3-.49-.3-.91-4.22.45-7.12,3.45-9.5,1.19-.81,2.95-1.46,3.39-2.9.47-1.34-.28-3.29.83-4.47,1.09-1.31,2.16-2.06,4.14-2.44,0,0,.49.3.49.3h0Z"/><path class="cls-2" d="M179.46,183.21c.55,1.2.6,2.1.51,2.91-.13.78-.31,1.54-1.01,1.99-.7.45-1.87.61-2.4,1.16-.55.54-.69,1.32-.6,2.25.36,3.7-1.5,6.43-5.69,7,0,0-.49-.29-.49-.29-1.24-3.56-.39-5.9,2.3-7.73,1-.57,2.62-.97,2.91-2.16.32-1.07-.61-2.74.33-3.71.97-1.08,1.86-1.55,3.66-1.71,0,0,.49.29.49.29h0Z"/><path class="cls-2" d="M143.88,199.57c.53,1.22.57,2.15.46,2.98-.14.8-.34,1.59-1.06,2.06-.71.47-1.9.65-2.45,1.22-.56.56-.72,1.37-.64,2.31.29,3.79-1.62,6.62-5.88,7.26,0,0-.49-.3-.49-.3-1.19-3.65-.27-6.07,2.46-7.97,1.03-.6,2.67-1.03,2.97-2.26.34-1.11-.56-2.82.4-3.81.99-1.11,1.9-1.62,3.73-1.8,0,0,.49.3.49.3h0Z"/><path class="cls-2" d="M155.21,177.99c.55,1.19.62,2.09.53,2.91-.12.78-.3,1.55-1,2-.7.45-1.87.62-2.39,1.18-.54.54-.68,1.33-.58,2.25.38,3.7-1.45,6.44-5.64,7.03,0,0-.49-.29-.49-.29-1.27-3.55-.43-5.9,2.24-7.74,1-.58,2.62-.98,2.89-2.18.31-1.07-.63-2.73.3-3.71.96-1.08,1.85-1.56,3.65-1.73,0,0,.49.29.49.29h0Z"/><path class="cls-2" d="M134.26,175.85c.71,1.13,1.41,3.05.11,3.83-1.46.45-2.91.19-2.37,2.31.16.66.3,1.33.13,1.96-.1,1.3-.78,2.08-2.06,2.5-.64.23-1.44.37-2.51.34l-.49-.3c-.79-1.52-1.14-2.79-.68-4.18.36-.74,1.16-1.26,1.91-1.65.77-.31,2.3-.4,2.43-1.33.2-.78-.9-2.16-.13-2.9.83-.83,1.91-.97,3.18-.87,0,0,.49.3.49.3h0Z"/><path class="cls-2" d="M130.23,223.14c.74,1.36,1.22,3.36-.14,4.35-1.63.67-3.07.56-2.65,2.87.41,2.09-.16,4.43-2.32,5.27-.69.33-1.54.57-2.66.64l-.49-.29c-.76-1.7-.99-3.16-.44-4.69.42-.87,1.28-1.54,2.11-2.08.88-.45,2.45-.7,2.64-1.76.24-.93-.79-2.43.06-3.29.86-.97,2.01-1.31,3.4-1.31,0,0,.49.29.49.29h0Z"/></svg>