<?xml version="1.0" encoding="UTF-8"?><svg id="Ebene_1" xmlns="http://www.w3.org/2000/svg" viewBox="0 0 250 250"><defs><style>.cls-1{fill:#ffc835;}.cls-2{fill:#78bee3;}.cls-3{fill:#575756;}.cls-4{fill:#fff;}</style></defs><path class="cls-4" d="M78.34,151.99c-2.25-.29-14.69-2.12-22.74-13.33-1.55-2.16-7.39-10.56-5.84-22.05.33-2.43,2.24-14.23,12.88-20.66,9.13-5.52,21.13-4.93,30.7,1.41-.09-3.62,0-17.43,10.19-29.29,12.11-14.09,29.17-14.6,33.11-14.72,4.75-.14,20.72.1,33.83,12.58,11.97,11.4,13.74,25.56,14.09,29.32,1.96-1.31,7.79-4.84,15.39-4.03,10.44,1.12,16.11,9.59,17.77,12.07,5.94,8.88,6.51,20.48,2.41,30-5.23,12.12-16.25,16.66-18.54,17.55h-44.44"/><path d="M78.35,154.2c-.1,0-.19,0-.29-.02-3.63-.47-16.1-2.89-24.26-14.23-5.12-7.12-7.34-15.51-6.23-23.64.48-3.54,2.9-15.59,13.93-22.26,8.76-5.29,20.07-5.4,29.71-.49.41-6.6,2.47-17.42,10.64-26.93,5.82-6.77,16.56-14.95,34.72-15.49,6.29-.18,22.33.73,35.42,13.19,9.84,9.37,13.18,20.66,14.32,27.34,3.34-1.68,8.18-3.27,13.87-2.65,7.61.82,14.13,5.21,19.37,13.05,6.17,9.22,7.17,21.52,2.6,32.11-5.18,12.01-15.55,17.1-19.77,18.73l-.39.15h-44.86c-1.22,0-2.22-.99-2.22-2.22s.99-2.22,2.22-2.22h44.02c3.9-1.58,12.55-6.08,16.92-16.21,3.98-9.22,3.13-19.9-2.21-27.89-4.48-6.7-9.92-10.43-16.16-11.1-6.34-.68-11.44,2-13.92,3.66l-3.1,2.07-.35-3.71c-.47-5-2.7-17.72-13.41-27.92-11.88-11.32-26.5-12.14-32.23-11.97-16.55.49-26.26,7.85-31.49,13.95-9.08,10.56-9.77,22.95-9.65,27.79l.11,4.25-3.55-2.35c-8.87-5.87-19.99-6.41-28.33-1.37-9.35,5.65-11.41,16.01-11.83,19.06-.95,7,.98,14.26,5.44,20.46,7.12,9.89,18.05,12.01,21.23,12.42,1.21.16,2.07,1.27,1.91,2.48-.15,1.12-1.1,1.93-2.2,1.93Z"/><path class="cls-1" d="M62.64,95.39c-1.24-1.56-10.34-13.45-6.79-29.05.56-2.47,3.72-15.1,16.27-21.88,11.64-6.3,23.07-3.09,26.84-1.79,10.84,3.74,16.46,11.75,18.16,14.39-3.54,1.84-12.31,7.01-18.27,17.76-5.3,9.56-5.61,18.54-5.5,22.57-2.31-1.54-7.8-4.77-15.55-5.15-7.21-.36-12.67,1.94-15.15,3.17Z"/><path class="cls-3" d="M66.25,44.73c-6.84-8.28-13.68-16.56-20.52-24.83"/><polygon class="cls-3" points="64.11 46.5 45.73 19.9 68.38 42.97 64.11 46.5 64.11 46.5"/><path class="cls-3" d="M53.87,62.28c-9.02-3.36-18.05-6.73-27.07-10.09"/><polygon class="cls-3" points="52.9 64.88 26.79 52.19 54.83 59.68 52.9 64.88 52.9 64.88"/><path class="cls-3" d="M52.73,80.39c-9.24.6-18.49,1.19-27.73,1.79"/><polygon class="cls-3" points="52.91 83.16 25 82.18 52.55 77.63 52.91 83.16 52.91 83.16"/><path class="cls-3" d="M85.21,37.59c.12-9.48.24-18.96.35-28.44"/><polygon class="cls-3" points="82.44 37.55 85.56 9.15 87.98 37.62 82.44 37.55 82.44 37.55"/><path class="cls-3" d="M107.49,42.61c4.06-6.32,8.11-12.64,12.17-18.96"/><polygon class="cls-3" points="105.16 41.11 119.66 23.65 109.82 44.11 105.16 41.11 105.16 41.11"/><path class="cls-3" d="M78.06,154.19c-3.63-.47-16.1-2.89-24.26-14.23-5.12-7.12-7.34-15.51-6.23-23.64.48-3.54,2.9-15.59,13.93-22.26,8.76-5.29,20.07-5.4,29.71-.49.41-6.6,2.47-17.42,10.64-26.93,5.82-6.77,16.56-14.95,34.72-15.49,6.29-.18,22.33.73,35.42,13.19,9.84,9.37,13.18,20.66,14.32,27.34,3.34-1.68,8.18-3.27,13.87-2.65,7.61.82,14.13,5.21,19.37,13.05,6.17,9.22,7.17,21.52,2.6,32.11-5.18,12.01-15.55,17.1-19.77,18.73l-.39.15h-44.86v-4.43h44.02c3.9-1.58,12.55-6.08,16.92-16.21,3.98-9.22,3.13-19.9-2.21-27.89-4.48-6.7-9.92-10.43-16.16-11.1-6.34-.68-11.44,2-13.92,3.66l-3.1,2.07-.35-3.71c-.47-5-2.7-17.72-13.41-27.92-11.88-11.32-26.5-12.14-32.23-11.97-16.55.49-26.26,7.85-31.49,13.95-9.08,10.56-9.77,22.95-9.65,27.79l.11,4.25-3.55-2.35c-8.87-5.87-19.99-6.41-28.33-1.37-9.35,5.65-11.41,16.01-11.83,19.06-.95,7,.98,14.26,5.44,20.46,7.12,9.89,18.05,12.01,21.23,12.42l-.57,4.4Z"/><path class="cls-3" d="M60.9,96.77c-1.85-2.33-10.88-14.78-7.22-30.92.85-3.73,4.6-16.43,17.38-23.34,12.03-6.51,24.02-3.52,28.61-1.94,10.6,3.65,16.64,11.14,19.3,15.28l-3.73,2.4c-2.35-3.66-7.68-10.27-17.02-13.49-4.04-1.39-14.58-4.02-25.06,1.65-11.14,6.02-14.42,17.16-15.17,20.43-3.22,14.17,4.74,25.13,6.37,27.19l-3.47,2.75Z"/><path class="cls-1" d="M110.18,158.21h19.67c-4.1,8.54-8.21,17.07-12.31,25.61h19.95c-13.35,16.22-26.7,32.45-40.05,48.67,4.06-11.46,8.11-22.92,12.17-34.38h-17.97c6.18-13.3,12.36-26.6,18.54-39.9Z"/><path class="cls-3" d="M92.73,240.85l14.54-41.07h-18.22l20.08-43.23h23.37l-12.31,25.61h20.83l-48.29,58.69ZM94.25,196.45h17.72l-9.8,27.69,31.8-38.66h-19.08l12.31-25.61h-15.96l-16.99,36.58Z"/><path class="cls-2" d="M97.61,140.8c.6,2.18.41,4.3-1.13,5.75-.78.59-2.02.91-2.64,1.6-.64.68-.88,1.61-.9,2.67-.11,4.23-2.25,7.56-6.79,8.73,0,0-.47-.29-.47-.29-.88-4.09.44-6.91,3.35-9.22,1.16-.79,2.86-1.42,3.29-2.82.46-1.3-.27-3.19.8-4.34,1.06-1.27,2.09-2,4.02-2.37,0,0,.47.29.47.29h0Z"/><path class="cls-2" d="M120.53,124.99c.6,2.18.41,4.3-1.13,5.75-.78.59-2.02.91-2.64,1.6-.64.68-.88,1.61-.9,2.67-.11,4.23-2.25,7.56-6.79,8.73,0,0-.47-.29-.47-.29-.88-4.09.44-6.91,3.35-9.22,1.16-.79,2.86-1.42,3.29-2.82.46-1.3-.27-3.19.8-4.34,1.06-1.27,2.09-2,4.02-2.37,0,0,.47.29.47.29h0Z"/><path class="cls-2" d="M135.24,135.74c.6,2.18.41,4.3-1.13,5.75-.78.59-2.02.91-2.64,1.6-.64.68-.88,1.61-.9,2.67-.11,4.23-2.25,7.56-6.79,8.73,0,0-.47-.29-.47-.29-.88-4.09.44-6.91,3.35-9.22,1.16-.79,2.86-1.42,3.29-2.82.46-1.3-.27-3.19.8-4.34,1.06-1.27,2.09-2,4.02-2.37,0,0,.47.29.47.29h0Z"/><path class="cls-2" d="M157.26,135.74c.6,2.18.41,4.3-1.13,5.75-.78.59-2.02.91-2.64,1.6-.64.68-.88,1.61-.9,2.67-.11,4.23-2.25,7.56-6.79,8.73,0,0-.47-.29-.47-.29-.88-4.09.44-6.91,3.35-9.22,1.16-.79,2.86-1.42,3.29-2.82.46-1.3-.27-3.19.8-4.34,1.06-1.27,2.09-2,4.02-2.37,0,0,.47.29.47.29h0Z"/></svg>