<?xml version="1.0" encoding="UTF-8"?><svg id="Ebene_1" xmlns="http://www.w3.org/2000/svg" viewBox="0 0 250 250"><defs><style>.cls-1{fill:#78bee3;}.cls-2{fill:#575756;}.cls-3{fill:#fff;}</style></defs><path class="cls-3" d="M94.85,175.59c3.48-.21,8.85,0,13.81,3.02.37.23,1.52.95,2.84,2.11,5.02,4.42,5.99,9.42,8.15,13.81.65,1.32,4.51,8.9,11.79,12.6,6.92,3.51,16.45,3.27,23.92-1.6,1.65-1.08,8.66-5.94,10.35-14.72,1.92-10-3.84-21-14.51-26.91-18.85-.04-37.7-.08-56.55-.12"/><path class="cls-3" d="M27.37,135.02h106.44c3.47-1.22,8.05-3.46,11.49-7.86,2.13-2.73,2.6-4.73,4.16-8.54,2.77-6.79,5.82-14.25,11.19-18.9,7.65-6.62,17.99-5.77,19.05-5.67,14.88,1.44,21.68,15.28,22,15.95,1.09,2.32,4.02,9.38,1.97,17.84-2.53,10.42-11.55,18.61-23.13,21.39H27.72"/><path class="cls-2" d="M141.79,211.91c-3.98,0-7.91-.88-11.43-2.66-7.58-3.85-11.75-11.43-12.85-13.67-.58-1.18-1.07-2.38-1.55-3.55-1.39-3.39-2.69-6.58-6.03-9.52-1.18-1.04-2.22-1.69-2.51-1.87-3.4-2.07-7.59-2.97-12.44-2.68-1.31.11-2.43-.92-2.51-2.22s.92-2.43,2.22-2.5c5.83-.36,10.94.78,15.18,3.36.48.29,1.74,1.1,3.17,2.36,4.18,3.68,5.83,7.72,7.29,11.29.47,1.15.91,2.23,1.42,3.26.93,1.9,4.47,8.35,10.74,11.53,6.49,3.29,15.15,2.7,21.56-1.48,2.33-1.52,7.91-5.86,9.31-13.19,1.74-9.05-3.75-19.08-13.34-24.4-1.14-.63-1.56-2.08-.92-3.22.63-1.14,2.08-1.56,3.22-.92,11.54,6.4,17.84,18.22,15.69,29.43-1.75,9.11-8.54,14.41-11.38,16.26-4.46,2.91-9.7,4.39-14.86,4.39Z"/><path class="cls-2" d="M180.8,151.6H27.72c-1.31,0-2.37-1.06-2.37-2.37s1.06-2.37,2.37-2.37h152.52c10.75-2.67,18.83-10.16,21.11-19.58,1.73-7.14-.39-13.26-1.81-16.27-.06-.13-6.4-13.27-20.08-14.6-1.05-.1-10.43-.82-17.27,5.1-4.94,4.28-7.92,11.57-10.55,18-.33.82-.62,1.55-.88,2.23-.97,2.5-1.73,4.47-3.6,6.88-3.01,3.87-7.24,6.77-12.57,8.64l-.38.13H27.37c-1.31,0-2.37-1.06-2.37-2.37s1.06-2.37,2.37-2.37h106.03c4.28-1.56,7.66-3.9,10.03-6.95,1.45-1.85,2-3.29,2.92-5.67.27-.7.56-1.46.91-2.31,2.83-6.92,6.03-14.77,11.83-19.79,8.16-7.07,18.78-6.44,20.83-6.24,16.34,1.58,23.61,16.66,23.91,17.3,1.68,3.58,4.2,10.85,2.12,19.41-2.73,11.24-12.26,20.11-24.88,23.14l-.27.07Z"/><path class="cls-2" d="M47.78,167.02c-1.3,0-2.36-1.05-2.37-2.35,0-1.31,1.04-2.38,2.35-2.39l143.87-1.05c18.23-8.58,29.69-25.25,28.56-41.62-.88-12.7-9.04-22.16-11.52-24.76-6.75-7.07-14.48-10.29-19.78-11.75-1.26-.35-2-1.65-1.66-2.91.35-1.26,1.65-2,2.91-1.66,5.87,1.62,14.45,5.19,21.95,13.05,2.76,2.89,11.83,13.42,12.82,27.7,1.27,18.45-11.49,37.13-31.76,46.46l-.46.21h-.51s-144.38,1.06-144.38,1.06h-.02ZM192.16,163.6h.01-.01Z"/><circle class="cls-1" cx="182.53" cy="61.33" r="21.17"/><path class="cls-2" d="M182.53,84.57c-12.82,0-23.24-10.43-23.24-23.24s10.43-23.24,23.24-23.24,23.24,10.43,23.24,23.24-10.43,23.24-23.24,23.24ZM182.53,42.23c-10.53,0-19.1,8.57-19.1,19.1s8.57,19.1,19.1,19.1,19.1-8.57,19.1-19.1-8.57-19.1-19.1-19.1Z"/></svg>