<?xml version="1.0" encoding="UTF-8"?><svg id="Ebene_1" xmlns="http://www.w3.org/2000/svg" viewBox="0 0 250 250"><defs><style>.cls-1{fill:#ffc835;}.cls-2{fill:#78bee3;}.cls-3{fill:#575756;}.cls-4{fill:#fff;}</style></defs><path class="cls-1" d="M60.4,108.02c-16.12-20.89-9.44-50.39,10.28-61.67,18.77-10.74,46.02-3.05,57.1,19.41-4.02.74-16.02,3.5-25.7,14.28-12.66,14.1-11.66,31.14-11.42,34.26-.6-.94-6.47-9.79-17.13-10.28-6.64-.3-11.48,2.82-13.13,4Z"/><path class="cls-3" d="M58.59,109.42c-8.07-10.45-11.21-23.88-8.62-36.84,2.44-12.2,9.57-22.48,19.57-28.21,9.49-5.43,21.38-6.57,32.64-3.13,12.01,3.67,22.08,12.24,27.65,23.52l-4.1,2.02c-5.08-10.3-13.92-17.82-24.89-21.17-10.05-3.07-20.64-2.08-29.03,2.73-8.86,5.07-15.19,14.23-17.36,25.14-2.33,11.67.5,23.75,7.76,33.16l-3.62,2.79Z"/><path class="cls-3" d="M51.27,103.46c-5.33,3.43-10.66,6.85-15.99,10.28"/><polygon class="cls-3" points="53.43 106.82 35.28 113.73 49.11 100.09 53.43 106.82 53.43 106.82"/><path class="cls-3" d="M46.7,92.04c-3.43.38-6.85.76-10.28,1.14"/><polygon class="cls-3" points="47.14 96.01 36.42 93.18 46.26 88.06 47.14 96.01 47.14 96.01"/><path class="cls-3" d="M46.7,76.05c-7.23-.38-14.47-.76-21.7-1.14"/><polygon class="cls-3" points="46.49 80.04 25 74.9 46.91 72.06 46.49 80.04 46.49 80.04"/><path class="cls-3" d="M50.13,61.2c-3.43-2.66-6.85-5.33-10.28-7.99"/><polygon class="cls-3" points="47.67 64.36 39.85 53.21 52.58 58.05 47.67 64.36 47.67 64.36"/><path class="cls-3" d="M60.4,46.35c-4.57-6.09-9.14-12.18-13.7-18.27"/><polygon class="cls-3" points="57.21 48.75 46.7 28.08 63.6 43.96 57.21 48.75 57.21 48.75"/><polygon class="cls-3" points="71.37 37.04 71.82 22.37 79.13 35.11 71.37 37.04 71.37 37.04"/><path class="cls-3" d="M90.1,33.79c.38-7.99.76-15.99,1.14-23.98"/><polygon class="cls-3" points="86.1 33.6 91.24 9.81 94.09 33.98 86.1 33.6 86.1 33.6"/><path class="cls-3" d="M103.8,34.93c1.52-4.19,3.05-8.38,4.57-12.56"/><polygon class="cls-3" points="100.04 33.57 108.37 22.37 107.56 36.3 100.04 33.57 100.04 33.57"/><path class="cls-3" d="M117.51,41.79c2.66-3.43,5.33-6.85,7.99-10.28"/><polygon class="cls-3" points="114.35 39.33 125.5 31.51 120.66 44.24 114.35 39.33 114.35 39.33"/><path class="cls-3" d="M126.64,50.92c5.71-4.57,11.42-9.14,17.13-13.7"/><polygon class="cls-3" points="124.15 47.8 143.77 37.22 129.14 54.04 124.15 47.8 124.15 47.8"/><path class="cls-4" d="M74.11,167.41h122.2c3.19-.82,11.59-3.44,18.27-11.42,1.97-2.35,9.26-11.33,7.99-23.98-.18-1.79-2.04-17.78-15.99-23.98-10.01-4.45-19.59-.85-21.7,0-.52-4.89-2.35-15.43-10.28-25.13-15.94-19.49-41.45-17.12-43.42-16.9-3.75.41-21.52,2.43-33.1,18.04-7.95,10.71-8.57,22.23-8.57,26.84-1.73-1.86-5.55-5.4-11.42-6.85-10.81-2.67-19.58,3.98-21.7,5.71-9.45,7.74-10.08,19.27-10.28,22.84-.17,3.16-.58,13.46,6.85,22.84,7.82,9.87,18.72,11.66,21.13,11.99Z"/><path class="cls-3" d="M196.6,169.69l-122.8-.02c-4.2-.59-14.82-3.01-22.6-12.83-3.7-4.68-7.99-12.7-7.34-24.39.59-10.68,4.33-18.92,11.11-24.48,3.39-2.77,12.47-8.93,23.69-6.16,3.59.89,6.52,2.49,8.83,4.19.62-6.33,2.7-15.13,8.78-23.32,7.89-10.63,20.21-17.36,34.69-18.95,2.9-.32,28.86-2.54,45.43,17.72,6.59,8.06,9.32,16.81,10.4,23.5,4.68-1.4,12.57-2.65,20.74.99,14.7,6.54,17.02,22.67,17.33,25.84.89,8.94-2.13,18.06-8.52,25.68-6.65,7.94-15.04,11.03-19.45,12.16l-.28.07ZM74.27,165.13h121.74c3.95-1.06,11.12-3.81,16.82-10.6,5.59-6.66,8.24-14.58,7.47-22.29-.17-1.67-1.99-16.49-14.64-22.12-8.51-3.78-16.76-1.24-19.92.03l-2.8,1.13-.32-3c-.67-6.28-2.91-15.53-9.78-23.92-15.31-18.71-40.34-16.19-41.4-16.08-13.2,1.45-24.39,7.53-31.52,17.13-7.09,9.55-8.13,20.06-8.12,25.47v5.81s-3.95-4.25-3.95-4.25c-2.02-2.16-5.45-5-10.3-6.19-9.47-2.34-17.48,3.43-19.7,5.26-8.67,7.1-9.25,17.71-9.45,21.2-.56,10.25,3.15,17.24,6.36,21.3,6.66,8.41,15.74,10.58,19.5,11.13Z"/><path class="cls-2" d="M109.91,207.97c.64,2.01.55,4.08-.96,5.32-.76.5-1.99.69-2.59,1.29-.61.59-.83,1.44-.82,2.44.02,3.99-2.08,6.96-6.51,7.66,0,0-.48-.31-.48-.31-.97-3.88.19-6.43,3.08-8.41,1.11-.64,2.8-1.09,3.2-2.38.42-1.17-.37-3,.68-4.02,1.06-1.14,2.04-1.71,3.93-1.9,0,0,.48.31.48.31h0Z"/><path class="cls-2" d="M162.22,206.66c.62,2.25.42,4.43-1.16,5.92-.81.61-2.09.94-2.72,1.65-.65.71-.9,1.66-.93,2.75-.11,4.36-2.32,7.79-6.99,8.99,0,0-.49-.3-.49-.3-.91-4.22.45-7.12,3.45-9.5,1.19-.81,2.95-1.46,3.39-2.9.47-1.34-.28-3.29.83-4.47,1.09-1.31,2.16-2.06,4.14-2.44,0,0,.49.3.49.3h0Z"/><path class="cls-2" d="M137.99,208.4c.53,1.22.57,2.15.46,2.98-.14.8-.34,1.59-1.06,2.06-.71.47-1.9.65-2.45,1.22-.56.56-.72,1.37-.64,2.31.29,3.79-1.62,6.62-5.88,7.26,0,0-.49-.3-.49-.3-1.19-3.65-.27-6.07,2.46-7.97,1.03-.6,2.67-1.03,2.97-2.26.34-1.11-.56-2.82.4-3.81.99-1.11,1.9-1.62,3.73-1.8,0,0,.49.3.49.3h0Z"/><path class="cls-2" d="M119.21,225.1c.61,1.15.71,2.03.66,2.82-.08.76-.22,1.51-.9,1.96-.67.45-1.82.64-2.32,1.18-.51.54-.61,1.3-.47,2.2.56,3.59-1.15,6.3-5.26,6.93,0,0-.5-.27-.5-.27-1.41-3.42-.72-5.72,1.86-7.57.95-.57,2.55-1,2.76-2.17.26-1.05-.76-2.64.13-3.61.91-1.08,1.76-1.54,3.53-1.74,0,0,.5.27.5.27h0Z"/><path class="cls-2" d="M142.13,225.1c.61,1.15.71,2.03.66,2.82-.08.76-.22,1.51-.9,1.96-.67.45-1.82.64-2.32,1.18-.51.54-.61,1.3-.47,2.2.56,3.59-1.15,6.3-5.26,6.93,0,0-.5-.27-.5-.27-1.41-3.42-.72-5.72,1.86-7.57.95-.57,2.55-1,2.76-2.17.26-1.05-.76-2.64.13-3.61.91-1.08,1.76-1.54,3.53-1.74,0,0,.5.27.5.27h0Z"/><path class="cls-4" d="M93.37,173.26c-1.32,11.21-2.65,22.42-3.97,33.64"/><path class="cls-3" d="M93.37,173.26c1.02,3.07.95,5.46.43,8.58,0,0-.99,8.41-.99,8.41l-.99,8.41-.5,4.2c-.6,1.35-1.18,2.7-1.91,4.04-.4-1.47-.66-2.92-.92-4.37l.5-4.2.99-8.41.99-8.41c.21-3.15.7-5.49,2.41-8.24h0Z"/><path class="cls-4" d="M80.89,176.78c6.99,8.86,13.99,17.73,20.98,26.59"/><path class="cls-3" d="M80.89,176.78c1.34.74,2.55,1.59,3.75,2.43.85,1.13,1.74,2.22,2.61,3.33l5.24,6.65,5.24,6.65,2.62,3.32c.53,1.38,1.08,2.75,1.5,4.21-1.32-.75-2.53-1.6-3.74-2.44l-2.62-3.32-5.24-6.65-5.24-6.65c-.88-1.1-1.74-2.22-2.63-3.31-.54-1.37-1.08-2.74-1.49-4.22,0,0,.41,1.48,0,0Z"/><path class="cls-4" d="M74.57,188.09c11.21,1.32,22.42,2.65,33.64,3.97"/><path class="cls-3" d="M74.57,188.09c3.07-1.02,5.46-.95,8.58-.43,0,0,8.41.99,8.41.99l8.41.99,4.2.5c1.35.6,2.7,1.18,4.04,1.91-1.47.4-2.92.66-4.37.92l-4.2-.5-8.41-.99-8.41-.99c-3.15-.21-5.49-.7-8.24-2.41h0Z"/><path class="cls-4" d="M78.09,200.57c8.86-6.99,17.73-13.99,26.59-20.98"/><path class="cls-3" d="M78.09,200.57c.74-1.34,1.59-2.55,2.43-3.75,1.13-.85,2.22-1.74,3.33-2.61l6.65-5.24,6.65-5.24,3.32-2.62c1.38-.53,2.75-1.08,4.21-1.5-.75,1.32-1.6,2.53-2.44,3.74l-3.32,2.62-6.65,5.24-6.65,5.24c-1.1.88-2.22,1.74-3.31,2.63-1.37.54-2.74,1.08-4.22,1.49,0,0,1.48-.41,0,0Z"/><path class="cls-4" d="M137.74,175.99c-1.11,9.39-2.22,18.79-3.32,28.18"/><path class="cls-3" d="M137.74,175.99c1.06,2.57,1.07,4.55.59,7.21,0,0-.83,7.05-.83,7.05l-.83,7.05-.42,3.52c-.57,1.12-1.13,2.25-1.83,3.36-.43-1.24-.71-2.46-1-3.69l.42-3.52.83-7.05.83-7.05c.16-2.71.62-4.61,2.25-6.88h0Z"/><path class="cls-4" d="M127.29,178.94c5.86,7.43,11.72,14.85,17.58,22.28"/><path class="cls-3" d="M127.29,178.94c1.2.56,2.26,1.23,3.33,1.89.71.95,1.46,1.86,2.19,2.79l4.39,5.57,4.39,5.57,2.2,2.78c.39,1.2.79,2.39,1.08,3.67-1.18-.57-2.24-1.24-3.32-1.9l-2.2-2.78-4.39-5.57-4.39-5.57c-1.8-2.02-2.83-3.7-3.27-6.45h0Z"/><path class="cls-4" d="M121.99,188.42c9.39,1.11,18.79,2.22,28.18,3.32"/><path class="cls-3" d="M121.99,188.42c2.57-1.06,4.55-1.07,7.21-.59,0,0,7.05.83,7.05.83l7.05.83,3.52.42c1.12.57,2.25,1.13,3.36,1.83-1.24.43-2.46.71-3.69,1l-3.52-.42-7.05-.83-7.05-.83c-2.71-.16-4.61-.62-6.88-2.25h0Z"/><path class="cls-4" d="M124.94,198.87c7.43-5.86,14.85-11.72,22.28-17.58"/><path class="cls-3" d="M124.94,198.87c.56-1.2,1.23-2.26,1.89-3.33.95-.71,1.86-1.46,2.79-2.19l5.57-4.39,5.57-4.39,2.78-2.2c1.2-.39,2.39-.79,3.67-1.08-.57,1.18-1.24,2.24-1.9,3.32l-2.78,2.2-5.57,4.39-5.57,4.39c-2.02,1.8-3.7,2.83-6.45,3.27h0Z"/><path class="cls-4" d="M180.28,176.23c-2.05,9.23-4.1,18.47-6.15,27.7"/><path class="cls-3" d="M180.28,176.23c.79,2.67.6,4.64-.14,7.23,0,0-1.54,6.93-1.54,6.93l-1.54,6.93-.77,3.46c-.68,1.06-1.35,2.12-2.16,3.15-.3-1.28-.46-2.52-.62-3.77l.77-3.46,1.54-6.93,1.54-6.93c.43-2.68,1.08-4.53,2.93-6.62h0Z"/><path class="cls-4" d="M169.58,178.11c5.08,7.98,10.16,15.96,15.24,23.94"/><path class="cls-3" d="M169.58,178.11c1.14.68,2.13,1.45,3.12,2.22.61,1.01,1.26,2,1.89,3l3.81,5.98,3.81,5.98,1.9,2.99c.27,1.23.55,2.45.7,3.76-1.12-.69-2.11-1.46-3.11-2.23l-1.9-2.99-3.81-5.98-3.81-5.98c-1.59-2.2-2.44-3.96-2.61-6.75h0Z"/><path class="cls-4" d="M163.35,187c9.23,2.05,18.47,4.1,27.7,6.15"/><path class="cls-3" d="M163.35,187c2.67-.79,4.64-.6,7.23.14,0,0,6.93,1.54,6.93,1.54l6.93,1.54,3.46.77c1.06.68,2.12,1.35,3.15,2.16-1.28.3-2.52.46-3.77.62l-3.46-.77-6.93-1.54-6.93-1.54c-2.68-.43-4.53-1.08-6.62-2.93h0Z"/><path class="cls-4" d="M165.23,197.7c7.98-5.08,15.96-10.16,23.94-15.24"/><path class="cls-3" d="M165.23,197.7c.68-1.14,1.45-2.13,2.22-3.12,1.01-.61,2-1.26,3-1.89l5.98-3.81,5.98-3.81,2.99-1.9c1.23-.27,2.45-.55,3.76-.7-.69,1.12-1.46,2.11-2.23,3.11l-2.99,1.9-5.98,3.81-5.98,3.81c-2.2,1.59-3.96,2.44-6.75,2.61h0Z"/></svg>