<?xml version="1.0" encoding="UTF-8"?><svg id="Ebene_1" xmlns="http://www.w3.org/2000/svg" viewBox="0 0 250 250"><defs><style>.cls-1{fill:#78bee3;}.cls-2{fill:#575756;}.cls-3{fill:#fff;}</style></defs><path class="cls-1" d="M28.81,91.68c-3.59-9.01-.55-18.93,6.63-23.59,5.45-3.54,12.67-3.65,18.83-.5-.1-1.69-.38-9.54,5.41-16.12,6.8-7.74,16.48-7.45,18.43-7.35,13.24.73,19.97,12.64,20.4,13.42.67-1.21,2.95-4.97,7.67-6.87,6.41-2.58,12.13.36,13.11.89,4.91,2.64,6.8,7.11,7.89,9.69,2.24,5.29,1.85,9.95,1.64,12.24-.52,5.55-2.61,9.7-4.02,12.02-3.03-.57-9.01-1.25-15.84,1.1-3.98,1.37-6.97,3.32-8.96,4.88-23.73.07-47.45.13-71.18.2Z"/><path class="cls-1" d="M35.43,191.96c2.53-3,5.52-4.42,7.24-5.08-1.43-3.71-.75-7.89,1.79-10.83,3.45-3.99,8.52-3.61,9.02-3.57-.23-5.5,3.02-10.35,7.72-11.88,5.37-1.76,10.02,1.69,10.44,2.01.11-.52,2.68-11.48,12.84-14.73,1.22-.39,8.09-2.44,14.63,1.61,5.53,3.42,8.69,9.89,8.25,16.79.59-.22,9.35-3.29,16.49,2.17,5.9,4.5,8.14,12.87,5.23,20.43,1.58.47,5.35,1.81,8.41,5.47,4.31,5.16,4.04,11.12,3.94,12.47-11.64.14-23.35.22-35.13.26-25.24.08-50.17-.08-74.78-.45-.19-1.31-1.13-8.68,3.92-14.67Z"/><path class="cls-3" d="M129.67,78.24c2.87-.33,21.46-2.17,37.03,11.65,15.39,13.65,15.94,32.01,15.98,34.94,1.81-1.25,10.89-7.25,21.21-4.48,12.94,3.48,17.93,18.12,18.67,27.03,1.06,12.88-6.1,22.14-7.91,24.34-5.83,7.08-12.91,9.96-16.13,11.05-22.69.04-45.37.08-68.06.11.7-6.29-2.48-12.37-7.98-15.31-5.2-2.77-11.62-2.26-16.41,1.31.3-1.08,2.26-8.52-2.37-15.08-.76-1.07-3.21-4.52-7.87-6-.82-.26-9.08-2.75-16.24,2.62-5.95,4.45-6.83,11.1-6.97,12.27-3.3-3.06-7.97-3.97-11.8-2.32-4.78,2.07-7.5,7.83-5.92,13.47-2.47-2.26-10.32-10.04-11.56-22.38-.09-.91-1.73-20.24,12.21-29.42,7.83-5.16,16.25-4.26,17.46-4.11,7.51.92,12.45,4.88,14.26,6.49-.3-1.67-2.62-16.14,7.93-27.64,11.63-12.67,28.25-10.13,29.42-9.93,1.68-2.87,3.37-5.75,5.05-8.62Z"/><path class="cls-2" d="M130.59,191.17l-4.18-2.11c3.26-6.44,1.83-14.14-3.38-18.29-4.02-3.2-9.7-3.8-14.82-1.56l-3.73,1.63.47-4.04c.52-4.47-.87-8.99-3.8-12.41-2.77-3.23-6.63-5.16-10.6-5.31-7.74-.31-14.58,5.82-15.62,13.91l-.54,4.25-3.28-2.76s-4.22-3.45-8.55-1.9c-3.93,1.4-6.29,6.15-5.36,10.81l.78,3.93-3.8-1.25c-.16-.05-3.92-1.25-6.75,1.05-2.4,1.96-3.13,5.65-1.73,8.78l-4.27,1.91c-2.29-5.11-1.04-11,3.05-14.32,2.63-2.14,5.62-2.53,7.84-2.43.09-5.8,3.47-11.04,8.68-12.89,3.93-1.4,7.59-.37,10.04.8,2.64-8.73,10.72-14.87,19.71-14.58,5.27.2,10.37,2.73,13.98,6.94,3,3.5,4.74,7.89,5,12.43,5.77-1.42,11.75-.25,16.24,3.33,6.94,5.53,8.89,15.65,4.64,24.06Z"/><path class="cls-2" d="M140.89,208.26l-4.24-1.98c.23-.49,2.18-4.93-.15-9.15-.64-1.17-2.5-3.94-5.92-4.58-4.79-.89-8.32,3.38-8.35,3.42-2.88,3.58-1.85,7.99-1.72,8.48l.76,2.94-65.89-.41.62-2.82c.06-.25,1.31-6.26-2.85-10.66-.66-.7-4.19-4.12-9.31-3.54-5.16.6-7.76,4.75-8.04,5.22-3.04,5.11-.39,10.44-.27,10.66l-4.17,2.12c-.41-.8-3.84-7.99.42-15.17.65-1.1,4.28-6.64,11.52-7.48,7.14-.83,11.95,3.6,13.25,4.97,3.86,4.08,4.43,9,4.34,12.05l54.67.34c-.11-2.56.33-6.28,3.02-9.64.21-.26,5.3-6.5,12.85-5.09,5.39,1,8.2,5.17,9.16,6.92,3.37,6.12.83,12.23.28,13.39Z"/><path class="cls-2" d="M50.33,173.04c-1.43-1.68-13.76-16.92-8.12-35.16,1.67-5.41,7.04-18.35,20.68-21.79,9.12-2.3,16.98.86,21.65,3.61-.05-6.27,1.34-16.93,9.95-25.56,1.42-1.43,14.4-13.79,31.84-9.27,11.97,3.1,21.1,12.72,23.84,25.12l-4.57,1.01c-2.36-10.67-10.19-18.95-20.44-21.6-14.93-3.86-26.13,6.82-27.36,8.05-10.65,10.68-8.52,24.99-8.24,26.59l1.1,6.34-4.92-4.16c-1.03-.87-10.41-8.44-21.71-5.59-11.33,2.85-15.91,13.98-17.35,18.63-4.99,16.12,6.71,30.16,7.21,30.75l-3.57,3.03Z"/><path class="cls-2" d="M130.46,185.23v-4.68s67.66-.11,67.66-.11c4.14-1.45,9.93-4.38,14.71-10.2,2.53-3.07,8.31-11.43,7.39-22.66-.64-7.75-4.92-21.73-16.94-24.96-8.85-2.38-16.99,2.57-19.27,4.15l-3.61,2.49-.06-4.39c-.06-4.69-1.34-20.94-15.19-33.22-14.02-12.44-30.5-11.62-35.21-11.07l-.54-4.65c5.2-.6,23.38-1.5,38.86,12.22,12.52,11.1,15.73,25.14,16.52,32.7,4.52-2.38,11.74-4.89,19.72-2.75,14.53,3.91,19.65,20.13,20.39,29.1,1.06,12.93-5.55,22.51-8.44,26.02-5.62,6.84-12.45,10.18-17.18,11.78l-.36.12h-.38s-68.06.11-68.06.11Z"/><path class="cls-2" d="M27.07,93.72c-4.5-10.18-1.45-22.05,7.1-27.6,6.53-4.25,13.73-3.13,17.82-1.9.32-3.85,1.61-9.39,5.94-14.31,7.2-8.19,17.37-8.3,20.32-8.14,10.44.58,17.19,7.49,20.31,11.61,1.5-1.77,3.69-3.66,6.75-4.89,7.02-2.83,13.33.05,15.09,1,5.64,3.03,7.79,8.11,8.94,10.84,2.51,5.94,2.02,11.15,1.81,13.38-.43,4.55-1.93,9.05-4.35,13.02l-4-2.43c2.05-3.37,3.33-7.18,3.69-11.03.19-2.03.59-6.27-1.46-11.11-1.06-2.5-2.66-6.29-6.85-8.54-1.31-.7-5.99-2.84-11.13-.78-3.66,1.47-5.64,4.28-6.49,5.83l-2.07,3.74-2.04-3.75c-.26-.47-6.4-11.54-18.47-12.2-2.41-.13-10.74-.05-16.54,6.55-4.8,5.46-4.98,11.92-4.83,14.44l.23,4.03-3.61-1.8c-.09-.05-9.11-4.44-16.51.37-6.64,4.31-8.95,13.68-5.37,21.78l-4.28,1.89Z"/><path class="cls-2" d="M85.48,93.23l-4.62-.71c.57-3.71-.5-7.46-2.93-10.31-2.21-2.59-5.2-4.09-8.21-4.12-2.96-.04-5.99,1.4-8.24,3.92-2.47,2.77-3.63,6.48-3.17,10.18l-4.64.57c-.62-5.03.95-10.09,4.32-13.86,3.11-3.49,7.35-5.49,11.65-5.49.04,0,.08,0,.12,0,4.37.04,8.65,2.14,11.73,5.76,3.31,3.88,4.76,9.01,3.99,14.05Z"/></svg>