<?xml version="1.0" encoding="UTF-8"?><svg id="Ebene_1" xmlns="http://www.w3.org/2000/svg" viewBox="0 0 250 250"><defs><style>.cls-1{fill:#ffc835;}.cls-2{fill:#575756;}.cls-3{fill:#fff;}</style></defs><path class="cls-3" d="M83.07,169.9c-1.64.16-18.62,1.54-30.07-11.76-7.94-9.22-10.67-22.53-6.29-33.92.99-2.57,4.92-12.78,15.94-16.96,12.92-4.9,24.45,2.73,25.59,3.51.55-4.69,2.16-12.75,7.52-20.93,12.68-19.35,34.72-21.62,36.47-21.77,5.79-.5,18.9-.56,31.32,8.2,17.43,12.3,19.48,32.12,19.74,35.09,1.44-.84,10.7-6.06,21.51-2.39,9.33,3.17,13.51,10.83,14.75,13.21,4.34,8.27,3.16,16.11,2.63,19.3-1.39,8.41-5.67,13.8-6.58,14.91-4.19,5.12-8.92,7.45-11.51,8.69-7.73,3.7-14.97,3.85-19.04,3.59,6.54,3.81,10.6,10.59,10.46,17.77-.16,8.49-6.12,13.76-7.7,15.05-6.16,5.05-13.11,4.9-14.82,4.81,2.78,11-2.33,22.44-12.06,27.51-10.44,5.44-23.75,2.26-30.85-7.68-1.09-3.59-2.88-8.25-5.92-13.23-3.17-5.2-6.66-9.05-9.44-11.7-18.08.15-36.16.3-54.23.44v-13.89c7.55.07,15.11.15,22.66.22-.02-6.03-.04-12.05-.06-18.08Z"/><path class="cls-1" d="M59.35,108.43c-14.81-20.26-8.38-48.62,11.46-60.16,19.99-11.62,48.05-2.93,58.14,20.26-4.25.69-16.22,3.19-26.65,13.52-11.38,11.28-13.57,24.61-14.08,28.71-2.45-1.5-7.54-4.18-14.56-4.66-6.57-.45-11.69,1.24-14.32,2.32Z"/><path class="cls-2" d="M58.69,111.52c-8.09-10.48-11.24-23.95-8.65-36.95,2.44-12.24,9.6-22.55,19.63-28.29,9.51-5.44,21.44-6.59,32.73-3.14,12.04,3.68,22.15,12.27,27.73,23.59l-4.11,2.03c-5.1-10.33-13.96-17.87-24.96-21.23-10.08-3.08-20.69-2.08-29.12,2.74-8.88,5.08-15.23,14.27-17.41,25.21-2.34,11.7.5,23.82,7.78,33.25l-3.63,2.8Z"/><path class="cls-2" d="M51.34,105.54c-5.34,3.44-10.69,6.87-16.03,10.31"/><polygon class="cls-2" points="53.51 108.91 35.31 115.85 49.17 102.17 53.51 108.91 53.51 108.91"/><path class="cls-2" d="M46.76,94.09c-3.44.38-6.87.76-10.31,1.15"/><polygon class="cls-2" points="47.2 98.07 36.45 95.23 46.32 90.1 47.2 98.07 47.2 98.07"/><path class="cls-2" d="M46.76,78.05c-7.25-.38-14.51-.76-21.76-1.15"/><polygon class="cls-2" points="46.55 82.06 25 76.91 46.97 74.05 46.55 82.06 46.55 82.06"/><path class="cls-2" d="M50.2,63.16c-3.44-2.67-6.87-5.34-10.31-8.02"/><polygon class="cls-2" points="47.74 66.33 39.89 55.15 52.66 60 47.74 66.33 47.74 66.33"/><path class="cls-2" d="M60.5,48.27c-4.58-6.11-9.16-12.22-13.74-18.33"/><polygon class="cls-2" points="57.3 50.68 46.76 29.95 63.71 45.87 57.3 50.68 57.3 50.68"/><polygon class="cls-2" points="71.51 38.94 71.96 24.22 79.28 36.99 71.51 38.94 71.51 38.94"/><path class="cls-2" d="M90.28,35.68c.38-8.02.76-16.03,1.15-24.05"/><polygon class="cls-2" points="86.28 35.48 91.43 11.62 94.29 35.87 86.28 35.48 86.28 35.48"/><path class="cls-2" d="M104.03,36.82c1.53-4.2,3.05-8.4,4.58-12.6"/><polygon class="cls-2" points="100.26 35.45 108.61 24.22 107.79 38.19 100.26 35.45 100.26 35.45"/><path class="cls-2" d="M117.77,43.69c2.67-3.44,5.34-6.87,8.02-10.31"/><polygon class="cls-2" points="114.61 41.23 125.79 33.38 120.94 46.15 114.61 41.23 114.61 41.23"/><path class="cls-2" d="M126.93,52.85l17.18-13.74"/><polygon class="cls-2" points="124.43 49.72 144.11 39.11 129.44 55.99 124.43 49.72 124.43 49.72"/><path class="cls-2" d="M80.92,172.55c-7.48,0-20.28-1.84-29.67-12.92-8.62-10.16-11.24-24.38-6.68-36.23,4.37-11.36,11.8-16.21,17.26-18.28,10.35-3.92,19.88-.44,24.64,1.98,1.23-6.66,3.75-13.01,7.36-18.52,13.16-20.09,35.66-22.58,38.18-22.8,6.87-.59,20.26-.26,32.83,8.61,14.74,10.4,19.04,25.73,20.29,33.47,4.31-1.86,11.89-3.95,20.38-1.06,4.74,1.61,11.36,5.4,16.04,14.31,4.78,9.12,3.34,17.86,2.86,20.74-1.38,8.33-5.4,13.96-7.07,15.99-4.6,5.62-9.8,8.11-12.3,9.3-6.14,2.94-13.13,4.26-20.18,3.81-1.26-.08-2.22-1.17-2.14-2.43.08-1.26,1.16-2.21,2.43-2.14,4.38.28,11.04-.08,17.91-3.37,2.2-1.05,6.78-3.24,10.73-8.07,1.43-1.75,4.9-6.6,6.09-13.84.46-2.76,1.67-10.1-2.4-17.86-3.19-6.08-7.72-10.15-13.46-12.1-9.31-3.17-17.37.88-19.61,2.2l-3.13,1.83-.31-3.61c-.31-3.59-2.68-22.05-18.78-33.42-11.38-8.03-23.55-8.32-29.8-7.79-.91.08-22.56,2.15-34.75,20.75-3.83,5.85-6.31,12.75-7.16,19.94l-.44,3.76-3.13-2.14c-1.17-.8-11.76-7.7-23.48-3.26-4.59,1.74-10.85,5.87-14.61,15.64-3.97,10.31-1.65,22.72,5.9,31.62,12.09,14.26,31.28,10.96,31.47,10.92,1.25-.22,2.44.6,2.66,1.84.23,1.24-.6,2.44-1.84,2.66-.28.05-2.62.45-6.11.45Z"/><path class="cls-2" d="M174,208.63c-.87,0-1.52-.05-1.88-.08-1.26-.12-2.18-1.24-2.06-2.5.12-1.26,1.25-2.18,2.5-2.06,1.46.14,9.04.56,14.86-5.28.27-.27,6.66-6.82,5.04-15.95-.79-4.48-3.31-8.46-7.28-11.5-6.1-4.68-13.23-4.28-16.34-3.81-.65,1.97-1.61,3.79-2.86,5.43-3.58,4.69-8.46,6.39-11.05,6.98l-.25.06h-69.18c-1.26,0-2.29-1.03-2.29-2.29s1.03-2.29,2.29-2.29h68.65c2.04-.5,5.59-1.84,8.2-5.24,1.17-1.52,2-3.27,2.47-5.19l.34-1.37,1.38-.31c2.84-.65,12.79-2.24,21.45,4.4,4.89,3.75,8,8.71,9,14.33,1.99,11.25-5.45,19.12-6.3,19.98-5.85,5.88-13.11,6.69-16.68,6.69Z"/><path class="cls-2" d="M184.4,166.97h-78.04v-4.58h77.13c5.81-2.48,10.43-7.02,12.71-12.5,1.86-4.49,1.99-9.29.36-13.17-2.43-5.77-9.49-11.28-17.8-10.15-6.86.94-12.61,6.27-14.3,13.26l-.03.11c-.76,2.56-2.41,6.29-5.98,9.54-3.78,3.44-7.9,4.71-10.69,5.18l-.37.03h-61.48v-4.58h61.29c1.83-.33,5.17-1.28,8.18-4.01,2.76-2.51,4.06-5.4,4.66-7.4,2.15-8.77,9.43-15.47,18.11-16.66,10.58-1.45,19.56,5.57,22.65,12.91,2.14,5.08,2.01,11.01-.35,16.71-2.79,6.73-8.49,12.26-15.62,15.16l-.41.17Z"/><path class="cls-2" d="M149.68,238.38c-1.36,0-2.72-.11-4.07-.34-10.17-1.69-15.72-9.09-17.18-11.31l-.18-.27-.1-.31c-1.22-3.91-2.91-7.67-5.01-11.18-2.54-4.25-5.68-8.11-9.33-11.49h-52.48c-1.26,0-2.29-1.03-2.29-2.29s1.03-2.29,2.29-2.29h54.24l.65.58c4.27,3.82,7.92,8.24,10.85,13.13,2.23,3.72,4.03,7.71,5.35,11.85,1.42,2.08,5.95,7.72,13.94,9.05,6.75,1.12,13.8-1.24,18.42-6.18,6.97-7.44,6.51-18.7,2.45-25.98-4.13-7.41-11.34-10.2-14.54-11.11H61.33c-1.26,0-2.29-1.03-2.29-2.29s1.03-2.29,2.29-2.29h91.98l.29.08c3.6.97,12.52,4.21,17.64,13.38,5.76,10.34,4.49,23.23-3.11,31.34-4.72,5.05-11.53,7.9-18.44,7.9Z"/></svg>