<?xml version="1.0" encoding="UTF-8"?><svg id="Ebene_1" xmlns="http://www.w3.org/2000/svg" viewBox="0 0 250 250"><defs><style>.cls-1{fill:#ffc835;}.cls-2{fill:#78bee3;}.cls-3{fill:#575756;}.cls-4{fill:#fff;}</style></defs><path class="cls-1" d="M66.73,112.41c-15.5-20.08-9.07-48.46,9.88-59.3,18.05-10.32,44.25-2.93,54.91,18.67-3.87.71-15.4,3.36-24.71,13.73-12.17,13.56-11.21,29.95-10.98,32.94-.58-.9-6.22-9.42-16.47-9.88-6.39-.29-11.04,2.71-12.63,3.84Z"/><path class="cls-3" d="M64.99,113.76c-7.76-10.05-10.78-22.96-8.29-35.43,2.34-11.73,9.2-21.62,18.82-27.12,9.12-5.22,20.56-6.31,31.38-3.01,11.54,3.53,21.23,11.77,26.59,22.61l-3.94,1.94c-4.89-9.91-13.39-17.14-23.93-20.36-9.67-2.95-19.84-2-27.92,2.62-8.52,4.87-14.6,13.68-16.7,24.17-2.24,11.22.48,22.84,7.46,31.88l-3.48,2.68Z"/><path class="cls-3" d="M57.94,108.02c-5.12,3.29-10.25,6.59-15.37,9.88"/><polygon class="cls-3" points="60.02 111.25 42.57 117.91 55.87 104.79 60.02 111.25 60.02 111.25"/><path class="cls-3" d="M53.55,91.55c-9.52.37-19.03.73-28.55,1.1"/><polygon class="cls-3" points="53.7 95.39 25 92.65 53.4 87.71 53.7 95.39 53.7 95.39"/><path class="cls-3" d="M59.04,66.29c-7.69-5.49-15.37-10.98-23.06-16.47"/><polygon class="cls-3" points="56.81 69.42 35.98 49.82 61.28 63.16 56.81 69.42 56.81 69.42"/><polygon class="cls-3" points="79.56 47.74 75.51 23.46 86.85 45.31 79.56 47.74 79.56 47.74"/><path class="cls-3" d="M106.26,46.53c2.2-5.86,4.39-11.71,6.59-17.57"/><polygon class="cls-3" points="102.66 45.18 112.85 28.95 109.86 47.87 102.66 45.18 102.66 45.18"/><path class="cls-3" d="M128.23,58.6c5.12-6.59,10.25-13.18,15.37-19.77"/><polygon class="cls-3" points="125.19 56.25 143.6 38.84 131.26 60.96 125.19 56.25 125.19 56.25"/><path class="cls-4" d="M79.91,169.52h117.5c3.07-.79,11.14-3.31,17.57-10.98,1.89-2.26,8.9-10.89,7.69-23.06-.17-1.72-1.97-17.1-15.37-23.06-9.62-4.28-18.84-.82-20.86,0-.5-4.7-2.26-14.84-9.88-24.16-15.33-18.74-39.86-16.46-41.75-16.25-3.6.4-20.69,2.34-31.83,17.35-7.64,10.3-8.25,21.37-8.24,25.81-1.67-1.79-5.33-5.19-10.98-6.59-10.39-2.56-18.83,3.82-20.86,5.49-9.08,7.44-9.69,18.53-9.88,21.96-.17,3.04-.55,12.95,6.59,21.96,7.52,9.49,18,11.21,20.32,11.53Z"/><path class="cls-3" d="M197.69,171.71l-118.08-.02c-4.04-.56-14.25-2.9-21.73-12.34-3.56-4.5-7.68-12.22-7.06-23.45.57-10.27,4.16-18.19,10.68-23.54,3.26-2.67,11.99-8.59,22.78-5.92,3.45.85,6.27,2.39,8.49,4.03.6-6.09,2.59-14.55,8.44-22.43,7.59-10.22,19.43-16.69,33.35-18.22,2.79-.31,27.75-2.43,43.69,17.04,6.34,7.75,8.96,16.17,10,22.59,4.5-1.34,12.09-2.54,19.94.95,14.13,6.29,16.36,21.8,16.67,24.85.86,8.6-2.05,17.37-8.19,24.69-6.4,7.63-14.46,10.6-18.71,11.7l-.27.07ZM80.06,167.32h117.06c3.79-1.02,10.69-3.66,16.17-10.2,5.37-6.41,7.92-14.02,7.18-21.43-.16-1.61-1.92-15.86-14.08-21.27-8.18-3.64-16.12-1.19-19.15.03l-2.69,1.09-.31-2.89c-.65-6.04-2.8-14.94-9.4-23-14.72-17.99-38.79-15.57-39.81-15.46-12.7,1.39-23.46,7.25-30.31,16.47-6.81,9.18-7.81,19.29-7.8,24.49v5.59s-3.8-4.08-3.8-4.08c-1.94-2.08-5.24-4.8-9.9-5.96-9.11-2.25-16.8,3.3-18.95,5.06-8.34,6.83-8.9,17.03-9.08,20.39-.54,9.86,3.03,16.58,6.12,20.48,6.41,8.09,15.14,10.17,18.75,10.7Z"/><path class="cls-2" d="M134.68,167.24c-4.54,4.71-7.74,7.77-9.98,9.82-1.34,1.22-4.16,3.82-7.52,7.76-.29.34-.55.66-.82,1-3.1,3.88-6.25,7.9-7.64,13.88-.39,1.66-.94,4.16-.53,7.42.11.87.67,4.83,3.53,8.87.97,1.36,4.9,6.93,12.44,8.33s13.2-2.39,14.59-3.32c4.12-2.75,6.06-6.25,6.48-7.02,1.55-2.89,1.92-5.43,2.16-7.11.84-6.07-.65-10.95-2.16-15.69-.63-1.97-1.28-3.7-4.65-11.16-2.42-5.36-4.47-9.75-5.89-12.76Z"/><path class="cls-3" d="M127.46,226.54c-1.36,0-2.59-.14-3.66-.33-3.79-.7-9.23-2.85-13.66-9.11-2.9-4.09-3.67-8.18-3.87-9.74-.46-3.67.18-6.44.57-8.09,1.52-6.53,4.97-10.84,8.01-14.64.29-.36.56-.69.86-1.05,3.47-4.07,6.43-6.77,7.69-7.93,2.84-2.6,6.17-5.88,9.89-9.73l1.93-2.01,1.19,2.52c1.97,4.17,3.96,8.48,5.9,12.79,3.4,7.53,4.08,9.32,4.73,11.37,1.48,4.65,3.15,9.91,2.23,16.54-.23,1.69-.63,4.51-2.37,7.76-.75,1.39-2.93,4.92-7.11,7.71-4.58,3.05-8.88,3.94-12.35,3.94ZM134.12,170.57c-3,3.06-5.73,5.71-8.12,7.9-1.21,1.11-4.04,3.7-7.36,7.59-.27.32-.53.63-.79.96-2.92,3.65-5.94,7.43-7.27,13.11-.35,1.5-.87,3.76-.5,6.74.16,1.28.8,4.62,3.2,8,3.68,5.2,8.13,6.97,11.22,7.55,3.08.57,7.87.51,13.17-3.03,3.46-2.31,5.25-5.2,5.85-6.33,1.42-2.64,1.74-4.95,1.95-6.47.8-5.76-.67-10.38-2.09-14.85-.61-1.91-1.25-3.61-4.57-10.96-1.55-3.43-3.13-6.86-4.7-10.22Z"/></svg>