<?xml version="1.0" encoding="UTF-8"?><svg id="Ebene_1" xmlns="http://www.w3.org/2000/svg" viewBox="0 0 250 250"><defs><style>.cls-1{fill:#ffc835;}.cls-2{fill:#575756;}.cls-3{fill:#fff;}</style></defs><path class="cls-1" d="M60.4,113.01c-16.12-20.89-9.44-50.39,10.28-61.67,18.77-10.74,46.02-3.05,57.1,19.41-4.02.74-16.02,3.5-25.7,14.28-12.66,14.1-11.66,31.14-11.42,34.26-.6-.94-6.47-9.79-17.13-10.28-6.64-.3-11.48,2.82-13.13,4Z"/><path class="cls-2" d="M58.6,114.4c-8.07-10.45-11.21-23.88-8.62-36.84,2.44-12.2,9.57-22.48,19.57-28.21,9.49-5.43,21.38-6.57,32.64-3.13,12,3.67,22.08,12.24,27.65,23.52l-4.1,2.02c-5.08-10.3-13.92-17.82-24.89-21.17-10.05-3.07-20.64-2.08-29.03,2.73-8.86,5.07-15.18,14.23-17.36,25.14-2.33,11.66.5,23.75,7.76,33.16l-3.62,2.79Z"/><path class="cls-2" d="M51.27,108.44c-5.33,3.43-10.66,6.85-15.99,10.28"/><polygon class="cls-2" points="53.43 111.8 35.28 118.72 49.11 105.08 53.43 111.8 53.43 111.8"/><path class="cls-2" d="M46.7,97.02c-3.43.38-6.85.76-10.28,1.14"/><polygon class="cls-2" points="47.14 100.99 36.42 98.16 46.26 93.05 47.14 100.99 47.14 100.99"/><path class="cls-2" d="M46.7,81.03c-7.23-.38-14.47-.76-21.7-1.14"/><polygon class="cls-2" points="46.49 85.02 25 79.89 46.91 77.04 46.49 85.02 46.49 85.02"/><path class="cls-2" d="M50.13,66.18c-3.43-2.66-6.85-5.33-10.28-7.99"/><polygon class="cls-2" points="47.67 69.34 39.85 58.19 52.58 63.03 47.67 69.34 47.67 69.34"/><path class="cls-2" d="M60.4,51.34c-4.57-6.09-9.14-12.18-13.7-18.27"/><polygon class="cls-2" points="57.21 53.74 46.7 33.07 63.6 48.94 57.21 53.74 57.21 53.74"/><polygon class="cls-2" points="71.37 42.03 71.82 27.35 79.13 40.09 71.37 42.03 71.37 42.03"/><path class="cls-2" d="M90.1,38.78c.38-7.99.76-15.99,1.14-23.98"/><polygon class="cls-2" points="86.1 38.59 91.24 14.79 94.09 38.97 86.1 38.59 86.1 38.59"/><path class="cls-2" d="M103.8,39.92c1.52-4.19,3.05-8.38,4.57-12.56"/><polygon class="cls-2" points="100.04 38.55 108.37 27.35 107.56 41.28 100.04 38.55 100.04 38.55"/><path class="cls-2" d="M117.51,46.77c2.66-3.43,5.33-6.85,7.99-10.28"/><polygon class="cls-2" points="114.35 44.32 125.5 36.49 120.66 49.22 114.35 44.32 114.35 44.32"/><path class="cls-2" d="M126.64,55.91c5.71-4.57,11.42-9.14,17.13-13.7"/><polygon class="cls-2" points="124.15 52.78 143.77 42.2 129.14 59.03 124.15 52.78 124.15 52.78"/><path class="cls-3" d="M90.27,182.23c-1.45,12.29-2.9,24.58-4.35,36.87"/><path class="cls-2" d="M90.27,182.23c.41,1.61.65,3.19.89,4.78-.21,1.53-.37,3.07-.56,4.61l-1.09,9.22-1.09,9.22-.54,4.61c-.61,1.49-1.21,2.97-1.96,4.44-.39-1.6-.62-3.19-.87-4.78l.54-4.61,1.09-9.22,1.09-9.22c.17-1.54.38-3.07.53-4.61.6-1.49,1.2-2.97,1.98-4.44,0,0-.77,1.47,0,0Z"/><path class="cls-3" d="M76.6,186.09c7.66,9.71,15.33,19.43,22.99,29.14"/><path class="cls-2" d="M76.6,186.09c1.43.85,2.71,1.8,4.01,2.75.94,1.23,1.91,2.43,2.86,3.65l5.75,7.29,5.75,7.29,2.87,3.64c.62,1.48,1.24,2.96,1.75,4.53-1.41-.86-2.7-1.81-3.99-2.76l-2.87-3.64-5.75-7.29-5.75-7.29c-.96-1.21-1.9-2.44-2.89-3.63-.62-1.48-1.25-2.95-1.74-4.54,0,0,.49,1.58,0,0Z"/><path class="cls-3" d="M69.67,198.49c12.29,1.45,24.58,2.9,36.87,4.35"/><path class="cls-2" d="M69.67,198.49c1.61-.41,3.19-.65,4.78-.89,1.53.21,3.07.37,4.61.56l9.22,1.09,9.22,1.09,4.61.54c1.49.61,2.97,1.21,4.44,1.96-1.6.39-3.19.62-4.78.87l-4.61-.54-9.22-1.09-9.22-1.09c-1.54-.17-3.07-.38-4.61-.53-1.49-.6-2.97-1.2-4.44-1.98,0,0,1.47.77,0,0Z"/><path class="cls-3" d="M73.53,212.16c9.71-7.66,19.43-15.33,29.14-22.99"/><path class="cls-2" d="M73.53,212.16c.85-1.43,1.8-2.71,2.75-4.01,1.23-.94,2.43-1.91,3.65-2.86l7.29-5.75,7.29-5.75,3.64-2.87c1.48-.62,2.96-1.24,4.53-1.75-.86,1.41-1.81,2.7-2.76,3.99l-3.64,2.87-7.29,5.75-7.29,5.75c-1.21.96-2.44,1.9-3.63,2.89-1.48.62-2.95,1.25-4.54,1.74,0,0,1.58-.49,0,0Z"/><path class="cls-3" d="M169.07,183.37c-1.45,12.29-2.9,24.58-4.35,36.87"/><path class="cls-2" d="M169.07,183.37c.41,1.61.65,3.19.89,4.78-.21,1.53-.37,3.07-.56,4.61l-1.09,9.22-1.09,9.22-.54,4.61c-.61,1.49-1.21,2.97-1.96,4.44-.39-1.6-.62-3.19-.87-4.78l.54-4.61,1.09-9.22,1.09-9.22c.17-1.54.38-3.07.53-4.61.6-1.49,1.2-2.97,1.98-4.44,0,0-.77,1.47,0,0Z"/><path class="cls-3" d="M155.4,187.23c7.66,9.71,15.33,19.43,22.99,29.14"/><path class="cls-2" d="M155.4,187.23c1.43.85,2.71,1.8,4.01,2.75.94,1.23,1.91,2.43,2.86,3.65l5.75,7.29,5.75,7.29,2.87,3.64c.62,1.48,1.24,2.96,1.75,4.53-1.41-.86-2.7-1.81-3.99-2.76l-2.87-3.64-5.75-7.29-5.75-7.29c-.96-1.21-1.9-2.44-2.89-3.63-.62-1.48-1.25-2.95-1.74-4.54,0,0,.49,1.58,0,0Z"/><path class="cls-3" d="M148.47,199.63c12.29,1.45,24.58,2.9,36.87,4.35"/><path class="cls-2" d="M148.47,199.63c1.61-.41,3.19-.65,4.78-.89,1.53.21,3.07.37,4.61.56l9.22,1.09,9.22,1.09,4.61.54c1.49.61,2.97,1.21,4.44,1.96-1.6.39-3.19.62-4.78.87l-4.61-.54-9.22-1.09-9.22-1.09c-1.54-.17-3.07-.38-4.61-.53-1.49-.6-2.97-1.2-4.44-1.98,0,0,1.47.77,0,0Z"/><path class="cls-3" d="M152.33,213.3c9.71-7.66,19.43-15.33,29.14-22.99"/><path class="cls-2" d="M152.33,213.3c.85-1.43,1.8-2.71,2.75-4.01,1.23-.94,2.43-1.91,3.65-2.86l7.29-5.75,7.29-5.75,3.64-2.87c1.48-.62,2.96-1.24,4.53-1.75-.86,1.41-1.81,2.7-2.76,3.99l-3.64,2.87-7.29,5.75-7.29,5.75c-1.21.96-2.44,1.9-3.63,2.89-1.48.62-2.95,1.25-4.54,1.74,0,0,1.58-.49,0,0Z"/><path class="cls-3" d="M129.72,207.23c-1.1,9.33-2.2,18.65-3.3,27.98"/><path class="cls-2" d="M129.72,207.23c1.06,2.58,1.07,4.49.59,7.16,0,0-.82,7-.82,7l-.83,7-.41,3.5c-.57,1.12-1.12,2.23-1.83,3.33-.43-1.23-.71-2.45-1.01-3.66l.41-3.5.83-7,.83-7c.15-2.69.61-4.58,2.24-6.83h0Z"/><path class="cls-3" d="M119.34,210.16c5.82,7.37,11.63,14.75,17.45,22.12"/><path class="cls-2" d="M119.34,210.16c1.19.55,2.25,1.21,3.31,1.87.7.94,1.45,1.85,2.17,2.77l4.36,5.53,4.36,5.53,2.18,2.76c.39,1.19.78,2.37,1.06,3.65-1.18-.57-2.23-1.23-3.3-1.88l-2.18-2.76-4.36-5.53-4.36-5.53c-1.8-2.01-2.81-3.67-3.24-6.41h0Z"/><path class="cls-3" d="M114.08,219.57c9.33,1.1,18.65,2.2,27.98,3.3"/><path class="cls-2" d="M114.08,219.57c2.58-1.06,4.49-1.07,7.16-.59,0,0,7,.82,7,.82l7,.83,3.5.41c1.12.57,2.23,1.12,3.33,1.83-1.23.43-2.45.71-3.66,1.01l-3.5-.41-7-.83-7-.83c-2.69-.15-4.58-.61-6.83-2.24h0Z"/><path class="cls-3" d="M117.01,229.94c7.37-5.82,14.75-11.63,22.12-17.45"/><path class="cls-2" d="M117.01,229.94c.55-1.19,1.21-2.25,1.87-3.31.94-.7,1.85-1.45,2.77-2.17l5.53-4.36,5.53-4.36,2.76-2.18c1.19-.39,2.37-.78,3.65-1.06-.57,1.18-1.23,2.23-1.88,3.3l-2.76,2.18-5.53,4.36-5.53,4.36c-2.01,1.8-3.67,2.81-6.41,3.24h0Z"/><path class="cls-3" d="M130.73,178.68c-1.01,8.57-2.02,17.13-3.03,25.7"/><path class="cls-2" d="M130.73,178.68c1.08,2.39,1.12,4.09.66,6.59,0,0-.76,6.42-.76,6.42l-.76,6.42-.38,3.21c-.56,1.02-1.1,2.04-1.8,3.04-.44-1.14-.73-2.26-1.04-3.38l.38-3.21.76-6.42.76-6.42c.13-2.53.57-4.2,2.18-6.26h0Z"/><path class="cls-3" d="M121.2,181.37c5.34,6.77,10.68,13.54,16.03,20.31"/><path class="cls-2" d="M121.2,181.37c2.46.93,3.68,2.1,5.13,4.19,0,0,4.01,5.08,4.01,5.08l4.01,5.08,2,2.54c.33,1.12.66,2.22.88,3.42-1.12-.49-2.12-1.08-3.12-1.65l-2-2.54-4.01-5.08-4.01-5.08c-1.69-1.88-2.56-3.37-2.89-5.96h0Z"/><path class="cls-3" d="M116.36,190.01c8.57,1.01,17.13,2.02,25.7,3.03"/><path class="cls-2" d="M116.36,190.01c2.39-1.08,4.09-1.12,6.59-.66,0,0,6.42.76,6.42.76l6.42.76,3.21.38c1.02.56,2.04,1.1,3.04,1.8-1.14.44-2.26.73-3.38,1.04l-3.21-.38-6.42-.76-6.42-.76c-2.53-.13-4.2-.57-6.26-2.18h0Z"/><path class="cls-3" d="M119.06,199.54c6.77-5.34,13.54-10.68,20.31-16.03"/><path class="cls-2" d="M119.06,199.54c.93-2.46,2.1-3.68,4.19-5.13,0,0,5.08-4.01,5.08-4.01l5.08-4.01,2.54-2c1.12-.33,2.22-.66,3.42-.88-.49,1.12-1.08,2.12-1.65,3.12l-2.54,2-5.08,4.01-5.08,4.01c-1.88,1.69-3.37,2.56-5.96,2.89h0Z"/><path class="cls-3" d="M74.11,172.4h122.2c3.19-.82,11.59-3.44,18.27-11.42,1.97-2.35,9.26-11.33,7.99-23.98-.18-1.79-2.04-17.78-15.99-23.98-10.01-4.45-19.59-.85-21.7,0-.52-4.89-2.35-15.43-10.28-25.13-15.94-19.49-41.45-17.12-43.42-16.9-3.75.41-21.52,2.43-33.1,18.04-7.95,10.71-8.57,22.23-8.57,26.84-1.73-1.86-5.55-5.4-11.42-6.85-10.81-2.67-19.58,3.98-21.7,5.71-9.45,7.74-10.08,19.27-10.28,22.84-.17,3.16-.58,13.46,6.85,22.84,7.82,9.87,18.72,11.66,21.13,11.99Z"/><path class="cls-2" d="M196.6,174.68l-122.8-.02c-4.2-.59-14.82-3.01-22.6-12.83-3.7-4.68-7.99-12.7-7.34-24.39.59-10.69,4.33-18.92,11.11-24.48,3.39-2.78,12.48-8.93,23.69-6.16,3.59.89,6.53,2.49,8.83,4.19.62-6.33,2.7-15.13,8.78-23.32,7.89-10.63,20.21-17.36,34.69-18.95,2.91-.32,28.86-2.54,45.43,17.72,6.59,8.06,9.32,16.81,10.4,23.5,4.68-1.4,12.57-2.65,20.74.99,14.7,6.54,17.02,22.67,17.33,25.84.89,8.95-2.13,18.07-8.52,25.68-6.65,7.94-15.04,11.03-19.45,12.16l-.28.07ZM74.27,170.11h121.74c3.95-1.06,11.12-3.81,16.82-10.6,5.59-6.66,8.24-14.58,7.47-22.29-.17-1.67-1.99-16.49-14.64-22.12-8.51-3.78-16.76-1.24-19.92.03l-2.8,1.13-.32-3.01c-.67-6.28-2.91-15.53-9.78-23.92-15.31-18.71-40.34-16.19-41.4-16.08-13.2,1.45-24.39,7.54-31.52,17.13-7.09,9.55-8.13,20.06-8.12,25.47v5.81s-3.95-4.25-3.95-4.25c-2.02-2.16-5.45-5-10.3-6.19-9.48-2.34-17.48,3.43-19.7,5.26-8.67,7.1-9.25,17.71-9.45,21.2-.57,10.26,3.15,17.24,6.36,21.3,6.66,8.41,15.74,10.58,19.5,11.13Z"/></svg>