<?xml version="1.0" encoding="UTF-8"?><svg id="Ebene_1" xmlns="http://www.w3.org/2000/svg" viewBox="0 0 250 250"><defs><style>.cls-1{fill:#ffc835;}.cls-2{fill:#575756;}.cls-3{fill:#fff;}</style></defs><path class="cls-1" d="M136.92,164.36c-7.23,12.18-14.47,24.36-21.7,36.55,4.19.38,8.38.76,12.56,1.14-4.57,10.66-9.14,21.32-13.7,31.98,14.85-14.85,29.69-29.69,44.54-44.54-6.85-.38-13.7-.76-20.56-1.14,4.19-7.61,8.38-15.23,12.56-22.84"/><polygon class="cls-2" points="109 241.53 125.28 203.54 112.36 202.37 135.45 163.49 138.39 165.24 118.08 199.45 130.29 200.56 119.16 226.52 154.7 190.98 135.25 189.9 149.12 164.68 152.13 166.33 140.88 186.79 162.54 187.99 109 241.53"/><path class="cls-1" d="M60.4,106.69c-16.12-20.89-9.44-50.39,10.28-61.67,18.77-10.74,46.02-3.05,57.1,19.41-4.02.74-16.02,3.5-25.7,14.28-12.66,14.1-11.66,31.14-11.42,34.26-.6-.94-6.47-9.79-17.13-10.28-6.64-.3-11.48,2.82-13.13,4Z"/><path class="cls-2" d="M58.59,108.08c-8.07-10.45-11.21-23.88-8.62-36.84,2.44-12.2,9.57-22.48,19.57-28.21,9.49-5.43,21.38-6.57,32.64-3.13,12.01,3.67,22.08,12.24,27.65,23.52l-4.1,2.02c-5.08-10.3-13.92-17.82-24.89-21.17-10.05-3.07-20.64-2.08-29.03,2.73-8.86,5.07-15.19,14.23-17.36,25.14-2.33,11.66.5,23.75,7.76,33.16l-3.62,2.79Z"/><path class="cls-2" d="M51.27,102.12c-5.33,3.43-10.66,6.85-15.99,10.28"/><polygon class="cls-2" points="53.43 105.48 35.28 112.4 49.11 98.76 53.43 105.48 53.43 105.48"/><path class="cls-2" d="M46.7,90.7c-3.43.38-6.85.76-10.28,1.14"/><polygon class="cls-2" points="47.14 94.67 36.42 91.84 46.26 86.73 47.14 94.67 47.14 94.67"/><path class="cls-2" d="M46.7,74.71c-7.23-.38-14.47-.76-21.7-1.14"/><polygon class="cls-2" points="46.49 78.7 25 73.57 46.91 70.72 46.49 78.7 46.49 78.7"/><path class="cls-2" d="M50.13,59.86c-3.43-2.66-6.85-5.33-10.28-7.99"/><polygon class="cls-2" points="47.67 63.02 39.85 51.87 52.58 56.71 47.67 63.02 47.67 63.02"/><path class="cls-2" d="M60.4,45.02c-4.57-6.09-9.14-12.18-13.7-18.27"/><polygon class="cls-2" points="57.21 47.42 46.7 26.75 63.6 42.62 57.21 47.42 57.21 47.42"/><polygon class="cls-2" points="71.37 35.71 71.82 21.03 79.13 33.77 71.37 35.71 71.37 35.71"/><path class="cls-2" d="M90.1,32.46c.38-7.99.76-15.99,1.14-23.98"/><polygon class="cls-2" points="86.1 32.27 91.24 8.47 94.09 32.65 86.1 32.27 86.1 32.27"/><path class="cls-2" d="M103.8,33.6c1.52-4.19,3.05-8.38,4.57-12.56"/><polygon class="cls-2" points="100.04 32.23 108.37 21.03 107.56 34.96 100.04 32.23 100.04 32.23"/><path class="cls-2" d="M117.51,40.45c2.66-3.43,5.33-6.85,7.99-10.28"/><polygon class="cls-2" points="114.35 38 125.5 30.17 120.66 42.9 114.35 38 114.35 38"/><path class="cls-2" d="M126.64,49.59c5.71-4.57,11.42-9.14,17.13-13.7"/><polygon class="cls-2" points="124.15 46.46 143.77 35.88 129.14 52.71 124.15 46.46 124.15 46.46"/><path class="cls-3" d="M74.11,166.07h122.2c3.19-.82,11.59-3.44,18.27-11.42,1.97-2.35,9.26-11.33,7.99-23.98-.18-1.79-2.04-17.78-15.99-23.98-10.01-4.45-19.59-.85-21.7,0-.52-4.89-2.35-15.43-10.28-25.13-15.94-19.49-41.45-17.12-43.42-16.9-3.75.41-21.52,2.43-33.1,18.04-7.95,10.71-8.57,22.23-8.57,26.84-1.73-1.86-5.55-5.4-11.42-6.85-10.81-2.67-19.58,3.98-21.7,5.71-9.45,7.74-10.08,19.27-10.28,22.84-.17,3.16-.58,13.46,6.85,22.84,7.82,9.87,18.72,11.66,21.13,11.99Z"/><path class="cls-2" d="M196.6,168.36l-122.8-.02c-4.2-.59-14.82-3.01-22.6-12.83-3.7-4.68-7.99-12.7-7.34-24.39.59-10.68,4.33-18.92,11.11-24.48,3.39-2.78,12.47-8.93,23.69-6.16,3.59.89,6.52,2.49,8.83,4.19.62-6.34,2.7-15.13,8.78-23.32,7.89-10.63,20.21-17.36,34.69-18.95,2.9-.32,28.86-2.54,45.43,17.72,6.59,8.06,9.32,16.81,10.4,23.5,4.67-1.4,12.57-2.65,20.74.99,14.7,6.54,17.02,22.67,17.33,25.84.89,8.95-2.13,18.06-8.52,25.68-6.65,7.94-15.04,11.03-19.45,12.16l-.28.07ZM74.27,163.79h121.74c3.95-1.06,11.12-3.81,16.82-10.6,5.59-6.66,8.24-14.58,7.47-22.29-.17-1.67-1.99-16.49-14.64-22.12-8.51-3.79-16.76-1.24-19.92.03l-2.8,1.13-.32-3.01c-.67-6.28-2.91-15.53-9.77-23.92-15.31-18.71-40.34-16.19-41.4-16.08-13.2,1.45-24.39,7.54-31.52,17.13-7.09,9.55-8.13,20.06-8.12,25.47v5.81s-3.95-4.25-3.95-4.25c-2.02-2.16-5.45-5-10.3-6.19-9.47-2.34-17.48,3.43-19.7,5.26-8.67,7.1-9.25,17.71-9.45,21.2-.56,10.25,3.15,17.24,6.36,21.3,6.66,8.41,15.74,10.58,19.5,11.13Z"/><path class="cls-3" d="M97.18,178.31c-2.24,10.4-4.48,20.79-6.72,31.19"/><path class="cls-2" d="M97.18,178.31c.76,3,.5,5.19-.28,8.1,0,0-1.68,7.8-1.68,7.8l-1.68,7.8-.84,3.9c-.7,1.21-1.4,2.42-2.24,3.6-.28-1.42-.41-2.81-.56-4.2l.84-3.9,1.68-7.8,1.68-7.8c.47-2.96,1.16-5.09,3.08-7.5h0Z"/><path class="cls-3" d="M85.17,180.5c5.77,8.94,11.53,17.87,17.3,26.81"/><path class="cls-2" d="M85.17,180.5c1.22.79,2.3,1.68,3.37,2.57.7,1.13,1.44,2.24,2.15,3.36l4.33,6.7,4.33,6.7,2.16,3.35c.36,1.35.72,2.7.96,4.12-1.2-.81-2.28-1.69-3.36-2.58l-2.16-3.35-4.33-6.7-4.33-6.7c-1.76-2.43-2.78-4.42-3.13-7.48h0Z"/><path class="cls-3" d="M78.23,190.54c10.4,2.24,20.79,4.48,31.19,6.72"/><path class="cls-2" d="M78.23,190.54c3-.76,5.19-.5,8.1.28,0,0,7.8,1.68,7.8,1.68l7.8,1.68,3.9.84c1.21.7,2.42,1.4,3.6,2.24-1.42.28-2.81.41-4.2.56l-3.9-.84-7.8-1.68-7.8-1.68c-2.96-.47-5.09-1.16-7.5-3.08h0Z"/><path class="cls-3" d="M80.42,202.55c8.94-5.77,17.87-11.53,26.81-17.3"/><path class="cls-2" d="M80.42,202.55c.79-1.22,1.68-2.3,2.57-3.37,1.13-.7,2.24-1.44,3.36-2.15l6.7-4.33,6.7-4.33,3.35-2.16c1.35-.36,2.7-.72,4.12-.96-.81,1.2-1.69,2.28-2.58,3.36l-3.35,2.16-6.7,4.33-6.7,4.33c-2.42,1.76-4.42,2.78-7.48,3.13h0Z"/><path class="cls-3" d="M184.58,178.31c-2.24,10.4-4.48,20.79-6.72,31.19"/><path class="cls-2" d="M184.58,178.31c.76,3,.5,5.19-.28,8.1,0,0-1.68,7.8-1.68,7.8l-1.68,7.8-.84,3.9c-.7,1.21-1.4,2.42-2.24,3.6-.28-1.42-.41-2.81-.56-4.2l.84-3.9,1.68-7.8,1.68-7.8c.47-2.96,1.16-5.09,3.08-7.5h0Z"/><path class="cls-3" d="M172.57,180.5c5.77,8.94,11.53,17.87,17.3,26.81"/><path class="cls-2" d="M172.57,180.5c1.22.79,2.3,1.68,3.37,2.57.7,1.13,1.44,2.24,2.15,3.36l4.33,6.7,4.33,6.7,2.16,3.35c.36,1.35.72,2.7.96,4.12-1.2-.81-2.28-1.69-3.36-2.58l-2.16-3.35-4.33-6.7-4.33-6.7c-1.76-2.43-2.78-4.42-3.13-7.48h0Z"/><path class="cls-3" d="M165.63,190.54c10.4,2.24,20.79,4.48,31.19,6.72"/><path class="cls-2" d="M165.63,190.54c3-.76,5.19-.5,8.1.28,0,0,7.8,1.68,7.8,1.68l7.8,1.68,3.9.84c1.21.7,2.42,1.4,3.6,2.24-1.42.28-2.81.41-4.2.56l-3.9-.84-7.8-1.68-7.8-1.68c-2.96-.47-5.09-1.16-7.5-3.08h0Z"/><path class="cls-3" d="M167.82,202.55c8.94-5.77,17.87-11.53,26.81-17.3"/><path class="cls-2" d="M167.82,202.55c.79-1.22,1.68-2.3,2.57-3.37,1.13-.7,2.24-1.44,3.36-2.15l6.7-4.33,6.7-4.33,3.35-2.16c1.35-.36,2.7-.72,4.12-.96-.81,1.2-1.69,2.28-2.58,3.36l-3.35,2.16-6.7,4.33-6.7,4.33c-2.42,1.76-4.42,2.78-7.48,3.13h0Z"/></svg>